<svg width="26" height="31" viewBox="0 0 26 31" fill="none" xmlns="http://www.w3.org/2000/svg">
<path d="M25.0343 23.3925C24.5752 24.4412 24.0318 25.4066 23.4022 26.2941C22.544 27.504 21.8413 28.3415 21.2998 28.8065C20.4603 29.5699 19.5609 29.9609 18.5977 29.9831C17.9063 29.9831 17.0724 29.7886 16.1018 29.3939C15.1279 29.0011 14.233 28.8065 13.4147 28.8065C12.5565 28.8065 11.6361 29.0011 10.6516 29.3939C9.66556 29.7886 8.87125 29.9942 8.26394 30.0146C7.34033 30.0535 6.41972 29.6514 5.5008 28.8065C4.91429 28.3007 4.18069 27.4336 3.30187 26.2051C2.35896 24.8933 1.58376 23.3721 0.97645 21.6378C0.326045 19.7646 0 17.9507 0 16.1945C0 14.1829 0.439599 12.4479 1.32011 10.9939C2.01211 9.82607 2.93272 8.90483 4.08494 8.22854C5.23715 7.55225 6.48212 7.20761 7.82284 7.18556C8.55644 7.18556 9.51847 7.40995 10.714 7.85093C11.9061 8.29339 12.6716 8.51777 13.0072 8.51777C13.2581 8.51777 14.1084 8.2554 15.5499 7.73234C16.9131 7.24726 18.0637 7.04642 19.0062 7.12553C21.5602 7.32935 23.479 8.32489 24.7551 10.1185C22.4709 11.487 21.341 13.4037 21.3635 15.8627C21.3841 17.778 22.0868 19.3718 23.4678 20.6373C24.0936 21.2247 24.7926 21.6786 25.5702 22.001C25.4016 22.4846 25.2236 22.9478 25.0343 23.3925ZM19.1767 0.600515C19.1767 2.10172 18.6221 3.50338 17.5165 4.80075C16.1823 6.34307 14.5686 7.23429 12.8186 7.09366C12.7963 6.91357 12.7834 6.72402 12.7834 6.52484C12.7834 5.08368 13.4179 3.54137 14.5446 2.28031C15.1071 1.64182 15.8226 1.11092 16.6902 0.687413C17.5559 0.270223 18.3747 0.0395089 19.1449 0C19.1674 0.200687 19.1767 0.401387 19.1767 0.600495V0.600515Z" fill="#323142"/>
</svg>
