<svg width="23" height="18" viewBox="0 0 23 18" fill="none" xmlns="http://www.w3.org/2000/svg">
<path fill-rule="evenodd" clip-rule="evenodd" d="M0.231689 4.4785C-0.105132 7.46745 -0.0901184 10.9147 0.378573 13.8915C0.63791 15.5386 2.04543 16.8014 3.78285 16.9456L5.59863 17.0964C9.38478 17.4107 13.1924 17.4107 16.9785 17.0964L18.7943 16.9456C20.5317 16.8014 21.9392 15.5386 22.1986 13.8915C22.6672 10.9147 22.6823 7.46765 22.3455 4.47868C22.3019 4.13216 22.2529 3.78611 22.1986 3.44064C21.9392 1.7935 20.5317 0.530758 18.7943 0.386509L16.9785 0.235756C13.1923 -0.0785855 9.38478 -0.0785853 5.59863 0.235756L3.78285 0.38651C2.04542 0.530758 0.63791 1.7935 0.378573 3.44064C0.324189 3.78605 0.275227 4.13204 0.231689 4.4785ZM5.75481 1.95176C9.43704 1.64605 13.1401 1.64605 16.8223 1.95176L18.6381 2.10252C19.545 2.17781 20.2798 2.83697 20.4151 3.69678C20.4292 3.78607 20.4429 3.8754 20.4562 3.96477L13.7701 7.51244C12.2268 8.33132 10.3502 8.33132 8.80696 7.51244L2.12096 3.96481C2.13425 3.87543 2.14793 3.78608 2.16199 3.69678C2.29737 2.83697 3.03209 2.17781 3.93904 2.10252L5.75481 1.95176ZM20.6768 5.81812C20.9101 8.42222 20.8228 11.046 20.4151 13.6354C20.2798 14.4952 19.545 15.1543 18.6381 15.2296L16.8223 15.3804C13.1401 15.6861 9.43704 15.6861 5.75482 15.3804L3.93904 15.2296C3.0321 15.1543 2.29737 14.4952 2.16199 13.6354C1.7543 11.046 1.66706 8.42225 1.90027 5.81816L7.93112 9.01816C10.0191 10.126 12.5579 10.126 14.6459 9.01816L20.6768 5.81812Z" fill="#C2C3CB"/>
</svg>
