<svg width="23" height="18" viewBox="0 0 23 18" fill="none" xmlns="http://www.w3.org/2000/svg">
<path d="M5.48643 0.251763C9.34806 -0.083921 13.2315 -0.0839212 17.0932 0.251763L18.9537 0.413492C20.1922 0.521156 21.2529 1.2599 21.8026 2.31662C21.8729 2.4518 21.8202 2.61548 21.6906 2.69568L13.9715 7.47422C12.3159 8.49908 10.2284 8.52058 8.55211 7.53004L0.781357 2.93823C0.655812 2.86405 0.598185 2.71134 0.654764 2.57693C1.15758 1.3825 2.28803 0.529794 3.62594 0.413492L5.48643 0.251763Z" fill="#6C5FBC"/>
<path d="M0.648441 5.00608C0.456306 4.89255 0.21115 5.01472 0.188753 5.23677C-0.123829 8.33583 -0.0481756 11.4642 0.415714 14.5491C0.660268 16.1754 1.98755 17.4221 3.62594 17.5646L5.48643 17.7263C9.34806 18.062 13.2315 18.062 17.0932 17.7263L18.9537 17.5646C20.592 17.4221 21.9193 16.1754 22.1639 14.5491C22.6413 11.3743 22.7075 8.15347 22.3625 4.96591C22.3383 4.7423 22.089 4.62237 21.8978 4.74076L14.9441 9.04541C12.7043 10.432 9.87997 10.4611 7.61204 9.12093L0.648441 5.00608Z" fill="#6C5FBC"/>
</svg>
