<svg width="22" height="20" viewBox="0 0 22 20" fill="none" xmlns="http://www.w3.org/2000/svg">
<path fill-rule="evenodd" clip-rule="evenodd" d="M20.3231 1.4234C20.6487 1.09778 20.6487 0.569841 20.3231 0.244218C19.9975 -0.0814059 19.4696 -0.0814059 19.1439 0.244218L1.35597 18.0322C1.03034 18.3578 1.03034 18.8857 1.35597 19.2114C1.68159 19.537 2.20953 19.537 2.53515 19.2114L5.70018 16.0463C7.21917 16.7614 8.96868 17.2321 10.8395 17.2321C13.8235 17.2321 16.4987 16.0347 18.4223 14.5583C19.386 13.8187 20.1818 12.9936 20.744 12.1835C21.2907 11.3957 21.6791 10.5313 21.6791 9.72779C21.6791 8.92433 21.2907 8.05985 20.744 7.27211C20.1818 6.46197 19.386 5.63688 18.4223 4.89729C18.1309 4.67362 17.8222 4.45636 17.4978 4.24869L20.3231 1.4234ZM16.2866 5.45993L14.3179 7.42865C14.7544 8.08772 15.0086 8.87807 15.0086 9.72779C15.0086 12.0303 13.142 13.8968 10.8395 13.8968C9.98982 13.8968 9.19947 13.6426 8.5404 13.2061L6.96537 14.7812C8.14997 15.2637 9.46333 15.5645 10.8395 15.5645C13.3816 15.5645 15.7092 14.5384 17.407 13.2354C18.254 12.5853 18.9235 11.8817 19.374 11.2327C19.8399 10.5613 20.0115 10.0361 20.0115 9.72779C20.0115 9.41951 19.8399 8.8943 19.374 8.22288C18.9235 7.57384 18.254 6.87029 17.407 6.22019C17.0588 5.95297 16.6842 5.6974 16.2866 5.45993ZM9.76108 11.9854C10.0876 12.1417 10.4534 12.2292 10.8395 12.2292C12.221 12.2292 13.341 11.1093 13.341 9.72779C13.341 9.34162 13.2535 8.97588 13.0972 8.64933L9.76108 11.9854Z" fill="#6C5FBC"/>
<path d="M10.8395 2.2235C11.9873 2.2235 13.0893 2.40064 14.1205 2.70268C14.3188 2.76078 14.3779 3.00908 14.2318 3.15525L13.3151 4.07195C13.2463 4.14071 13.1467 4.16826 13.0519 4.14645C12.341 3.98291 11.5999 3.89112 10.8395 3.89112C8.29748 3.89112 5.96984 4.91717 4.27208 6.22019C3.42505 6.87029 2.75555 7.57384 2.30513 8.22288C1.83917 8.8943 1.66762 9.41951 1.66762 9.72779C1.66762 10.0361 1.83917 10.5613 2.30513 11.2327C2.69849 11.7995 3.25895 12.4079 3.95884 12.986C4.08764 13.0924 4.09991 13.2871 3.98179 13.4052L3.19366 14.1934C3.09326 14.2938 2.93305 14.3026 2.82425 14.2113C2.05384 13.5652 1.41084 12.869 0.935095 12.1835C0.388412 11.3957 0 10.5313 0 9.72779C0 8.92433 0.388412 8.05985 0.935095 7.27211C1.49731 6.46197 2.29312 5.63688 3.25676 4.89729C5.18036 3.42094 7.85559 2.2235 10.8395 2.2235Z" fill="#6C5FBC"/>
<path d="M10.8395 5.55874C10.9713 5.55874 11.1015 5.56485 11.2301 5.57679C11.449 5.59713 11.5282 5.85881 11.3728 6.01423L10.0251 7.36196C9.29874 7.61195 8.7237 8.187 8.4737 8.91331L7.12597 10.261C6.97055 10.4165 6.70888 10.3372 6.68854 10.1184C6.67659 9.98979 6.67049 9.8595 6.67049 9.72779C6.67049 7.42529 8.53704 5.55874 10.8395 5.55874Z" fill="#6C5FBC"/>
</svg>
