<svg width="22" height="23" viewBox="0 0 22 23" fill="none" xmlns="http://www.w3.org/2000/svg">
<path d="M16.1869 6.81689C15.6889 5.90377 15.004 5.20856 14.1324 4.73125C13.2608 4.25394 12.2439 4.01528 11.0818 4.01528C9.79514 4.01528 8.65374 4.30582 7.65762 4.88689C6.66149 5.46797 5.88327 6.29807 5.32294 7.37721C4.76262 8.45635 4.48246 9.7015 4.48246 11.1127C4.48246 12.5654 4.76262 13.8313 5.32294 14.9104C5.90402 15.9896 6.70299 16.8197 7.71987 17.4007C8.73675 17.9818 9.91965 18.2723 11.2686 18.2723C12.9288 18.2723 14.2881 17.8365 15.3465 16.9649C16.4048 16.0726 17.1001 14.8378 17.4321 13.2606H9.96116V9.92978H21.7279V13.7275C21.4374 15.2425 20.8148 16.6433 19.8602 17.9299C18.9055 19.2166 17.6708 20.2542 16.1558 21.0428C14.6616 21.8107 12.9807 22.1946 11.1129 22.1946C9.01691 22.1946 7.11805 21.7277 5.41633 20.7938C3.73537 19.8392 2.4072 18.5214 1.43183 16.8404C0.477206 15.1594 -0.000104804 13.2502 -0.000104804 11.1127C-0.000104804 8.97516 0.477206 7.06592 1.43183 5.38496C2.4072 3.68324 3.73537 2.36545 5.41633 1.43158C7.11805 0.476961 9.00654 -0.000349026 11.0818 -0.000349026C13.5306 -0.000349026 15.6578 0.601477 17.4632 1.80513C19.2687 2.98803 20.5139 4.65862 21.1987 6.81689H16.1869Z" fill="#323142"/>
</svg>
