<svg width="19" height="25" viewBox="0 0 19 25" fill="none" xmlns="http://www.w3.org/2000/svg">
<path fill-rule="evenodd" clip-rule="evenodd" d="M3.2208 6.95557L3.65616 10.8738L2.77515 10.9442C1.54659 11.0423 0.543408 11.9658 0.344253 13.182C-0.114751 15.9852 -0.114751 18.8444 0.344253 21.6477C0.543408 22.8639 1.54659 23.7874 2.77515 23.8855L4.67381 24.0371C7.67149 24.2764 10.6835 24.2764 13.6811 24.0371L15.5798 23.8855C16.8084 23.7874 17.8116 22.8639 18.0107 21.6477C18.4697 18.8444 18.4697 15.9853 18.0107 13.182C17.8116 11.9658 16.8084 11.0423 15.5798 10.9442L14.6987 10.8738L15.134 6.95557C15.1854 6.49367 15.1854 6.0275 15.134 5.56559L15.1051 5.30557C14.7987 2.54743 12.6304 0.365099 9.87428 0.0408513C9.4113 -0.0136171 8.94353 -0.0136171 8.48055 0.0408512C5.72445 0.365099 3.55615 2.54743 3.24969 5.30557L3.2208 5.56559C3.16947 6.0275 3.16947 6.49367 3.2208 6.95557ZM9.65186 1.93139C9.33665 1.8943 9.01818 1.8943 8.70297 1.93139C6.82652 2.15214 5.35027 3.63795 5.14162 5.51578L5.11273 5.77581C5.07693 6.098 5.07693 6.42317 5.11273 6.74536L5.55537 10.7291C7.96759 10.5744 10.3872 10.5744 12.7995 10.7291L13.2421 6.74536C13.2779 6.42316 13.2779 6.098 13.2421 5.77581L13.2132 5.51578C13.0046 3.63795 11.5283 2.15214 9.65186 1.93139ZM9.17745 15.5113C8.12613 15.5113 7.27387 16.3635 7.27387 17.4149C7.27387 18.4662 8.12613 19.3184 9.17745 19.3184C10.2288 19.3184 11.081 18.4662 11.081 17.4149C11.081 16.3635 10.2288 15.5113 9.17745 15.5113Z" fill="#6C5FBC"/>
</svg>
