<svg width="19" height="24" viewBox="0 0 19 24" fill="none" xmlns="http://www.w3.org/2000/svg">
<path d="M7.33818 16.8346C7.33818 15.8183 8.16204 14.9944 9.17832 14.9944C10.1946 14.9944 11.0185 15.8183 11.0185 16.8346C11.0185 17.8508 10.1946 18.6747 9.17832 18.6747C8.16204 18.6747 7.33818 17.8508 7.33818 16.8346Z" fill="#C2C3CB"/>
<path fill-rule="evenodd" clip-rule="evenodd" d="M3.80713 10.2065L3.42016 6.7238C3.37055 6.27728 3.37055 5.82665 3.42016 5.38013L3.44809 5.12877C3.74434 2.46254 5.84039 0.352933 8.50465 0.0394899C8.9522 -0.0131633 9.40439 -0.0131633 9.85194 0.03949C12.5162 0.352933 14.6122 2.46254 14.9085 5.12877L14.9364 5.38013C14.986 5.82665 14.986 6.27728 14.9364 6.7238L14.5495 10.2065L15.3918 10.2738C16.72 10.3798 17.8046 11.3783 18.0199 12.6932C18.469 15.4359 18.469 18.2333 18.0199 20.9759C17.8046 22.2908 16.72 23.2893 15.3918 23.3953L13.5564 23.5419C10.6423 23.7745 7.71439 23.7745 4.80036 23.5419L2.96496 23.3953C1.63671 23.2893 0.552128 22.2908 0.336812 20.9759C-0.112271 18.2333 -0.112271 15.4359 0.336812 12.6932C0.552128 11.3783 1.63671 10.3798 2.96496 10.2738L3.80713 10.2065ZM8.71965 1.86703C9.02436 1.83118 9.33222 1.83118 9.63693 1.86703C11.4509 2.08043 12.8779 3.51672 13.0796 5.33198L13.1075 5.58334C13.1421 5.8948 13.1421 6.20913 13.1075 6.52059L12.7136 10.0665C10.3592 9.91487 7.99744 9.91488 5.64304 10.0665L5.24905 6.52059C5.21444 6.20913 5.21444 5.8948 5.24905 5.58334L5.27698 5.33198C5.47867 3.51672 6.90573 2.08043 8.71965 1.86703ZM13.4099 11.9616C10.5934 11.7367 7.76335 11.7367 4.94679 11.9616L3.1114 12.1081C2.62691 12.1468 2.23131 12.511 2.15277 12.9906C1.73593 15.5363 1.73593 18.1328 2.15277 20.6785C2.23131 21.1582 2.62691 21.5223 3.1114 21.561L4.94679 21.7075C7.76335 21.9324 10.5934 21.9324 13.4099 21.7075L15.2453 21.561C15.7298 21.5223 16.1254 21.1582 16.2039 20.6785C16.6208 18.1328 16.6208 15.5363 16.2039 12.9906C16.1254 12.511 15.7298 12.1468 15.2453 12.1081L13.4099 11.9616Z" fill="#C2C3CB"/>
</svg>
