<svg width="470" height="498" viewBox="0 0 470 498" fill="none" xmlns="http://www.w3.org/2000/svg">
<path opacity="0.1" d="M113.623 13.1103L109.924 8.0186L115.016 4.31994C115.657 3.85449 115.801 2.94582 115.335 2.30507C114.87 1.66433 113.961 1.52034 113.32 1.98579L108.229 5.68447L104.53 0.592815C104.065 -0.047931 103.156 -0.191922 102.515 0.273528C101.875 0.738979 101.731 1.64765 102.196 2.2884L105.895 7.38002L100.803 11.0787C100.162 11.5442 100.018 12.4528 100.484 13.0936C100.949 13.7343 101.858 13.8783 102.499 13.4129L107.59 9.71417L111.289 14.8058C111.754 15.4466 112.663 15.5906 113.304 15.1251C113.954 14.6612 114.097 13.7624 113.623 13.1103Z" fill="white"/>
<path opacity="0.1" d="M454.62 67.1073L450.921 62.0157L456.013 58.317C456.653 57.8516 456.797 56.9429 456.332 56.3021C455.866 55.6614 454.958 55.5174 454.317 55.9829L449.225 59.6815L445.527 54.5899C445.061 53.9491 444.153 53.8051 443.512 54.2706C442.871 54.736 442.727 55.6447 443.193 56.2855L446.891 61.3771L441.8 65.0758C441.159 65.5412 441.015 66.4499 441.48 67.0906C441.946 67.7314 442.854 67.8754 443.495 67.4099L448.587 63.7112L452.286 68.8029C452.751 69.4436 453.66 69.5876 454.3 69.1222C454.951 68.6583 455.093 67.7595 454.62 67.1073Z" fill="white"/>
<path opacity="0.1" d="M432.009 34.6435L430.106 32.0232L432.726 30.1198C433.056 29.8802 433.13 29.4126 432.89 29.0829C432.651 28.7531 432.183 28.679 431.853 28.9185L429.233 30.822L427.33 28.2017C427.09 27.8719 426.622 27.7978 426.293 28.0374C425.963 28.2769 425.889 28.7445 426.128 29.0743L428.032 31.6946L425.411 33.598C425.082 33.8376 425.008 34.3052 425.247 34.635C425.487 34.9647 425.954 35.0388 426.284 34.7993L428.904 32.8958L430.808 35.5161C431.047 35.8459 431.515 35.92 431.845 35.6805C432.18 35.4417 432.253 34.9792 432.009 34.6435Z" fill="white"/>
<path opacity="0.1" d="M56.77 61.5498H113.53V118.31H56.77V61.5498Z" stroke="white" stroke-width="2" stroke-miterlimit="10"/>
<path opacity="0.1" d="M28.3901 33.1699H85.1501V89.9299H28.3901V33.1699Z" fill="white"/>
<path opacity="0.1" d="M469.968 434.622L397.157 497.2C379.875 477.092 382.166 446.783 402.274 429.5C422.382 412.218 452.686 414.514 469.968 434.622Z" fill="white"/>
</svg>