<svg width="21" height="23" viewBox="0 0 21 23" fill="none" xmlns="http://www.w3.org/2000/svg">
<path d="M10.0423 0C7.35862 0 5.1831 2.29594 5.1831 5.12813C5.1831 7.96032 7.35862 10.2563 10.0423 10.2563C12.7259 10.2563 14.9014 7.96032 14.9014 5.12813C14.9014 2.29594 12.7259 0 10.0423 0Z" fill="#6C5FBC"/>
<path d="M4.85916 12.9913C2.17552 12.9913 0 15.2872 0 18.1194V19.7444C0 20.7744 0.707343 21.6527 1.67061 21.8186C7.21501 22.774 12.8695 22.774 18.4139 21.8186C19.3772 21.6527 20.0845 20.7744 20.0845 19.7444V18.1194C20.0845 15.2872 17.909 12.9913 15.2254 12.9913H14.7837C14.5446 12.9913 14.3071 13.0312 14.0798 13.1095L12.9583 13.4959C11.0635 14.1489 9.02102 14.1489 7.12623 13.4959L6.00472 13.1095C5.77747 13.0312 5.53991 12.9913 5.30085 12.9913H4.85916Z" fill="#6C5FBC"/>
</svg>
