<svg width="21" height="23" viewBox="0 0 21 23" fill="none" xmlns="http://www.w3.org/2000/svg">
<path fill-rule="evenodd" clip-rule="evenodd" d="M4.64424 5.63943C4.64424 2.52486 7.1691 0 10.2837 0C13.3982 0 15.9231 2.52486 15.9231 5.63943C15.9231 8.754 13.3982 11.2789 10.2837 11.2789C7.1691 11.2789 4.64424 8.754 4.64424 5.63943ZM10.2837 1.99039C8.26836 1.99039 6.63462 3.62412 6.63462 5.63943C6.63462 7.65474 8.26836 9.28847 10.2837 9.28847C12.299 9.28847 13.9327 7.65474 13.9327 5.63943C13.9327 3.62412 12.299 1.99039 10.2837 1.99039Z" fill="#C2C3CB"/>
<path fill-rule="evenodd" clip-rule="evenodd" d="M4.97597 15.2596C3.32708 15.2596 1.99039 16.5963 1.99039 18.2452V19.822C1.99039 19.846 2.00779 19.8665 2.03148 19.8703C7.49676 20.7626 13.0706 20.7626 18.5359 19.8703C18.5595 19.8665 18.577 19.846 18.577 19.822V18.2452C18.577 16.5963 17.2403 15.2596 15.5914 15.2596H15.1391C15.1041 15.2596 15.0693 15.2652 15.0361 15.276L13.8876 15.651C11.5458 16.4157 9.02151 16.4157 6.67972 15.651L5.53125 15.276C5.498 15.2652 5.46325 15.2596 5.42828 15.2596H4.97597ZM0 18.2452C0 15.4971 2.22782 13.2692 4.97597 13.2692H5.42828C5.67308 13.2692 5.91635 13.308 6.14907 13.3839L7.29754 13.759C9.23788 14.3925 11.3295 14.3925 13.2698 13.759L14.4183 13.3839C14.651 13.308 14.8943 13.2692 15.1391 13.2692H15.5914C18.3395 13.2692 20.5673 15.4971 20.5673 18.2452V19.822C20.5673 20.8215 19.843 21.6737 18.8566 21.8347C13.1789 22.7617 7.38845 22.7617 1.71077 21.8347C0.724347 21.6737 0 20.8215 0 19.822V18.2452Z" fill="#C2C3CB"/>
</svg>
