<?xml version="1.0" encoding="utf-8"?>
<svg xmlns="http://www.w3.org/2000/svg" viewBox="299.2467 219.7871 73.7957 107.4138" width="73.7957px" height="107.414px" preserveAspectRatio="none"><defs><filter id="filter0_d_1_14625" x="6.48499e-05" y="-0.000305176" width="122.993" height="156.611" filterUnits="userSpaceOnUse" color-interpolation-filters="sRGB"><feFlood flood-opacity="0" result="BackgroundImageFix"/><feColorMatrix in="SourceAlpha" type="matrix" values="0 0 0 0 0 0 0 0 0 0 0 0 0 0 0 0 0 0 127 0" result="hardAlpha"/><feOffset dy="16.399"/><feGaussianBlur stdDeviation="12.2993"/><feColorMatrix type="matrix" values="0 0 0 0 0.529412 0 0 0 0 0.490196 0 0 0 0 0.784314 0 0 0 0.25 0"/><feBlend mode="normal" in2="BackgroundImageFix" result="effect1_dropShadow_1_14625"/><feBlend mode="normal" in="SourceGraphic" in2="effect1_dropShadow_1_14625" result="shape"/></filter><clipPath id="clip0_1_14625"><rect width="44.9726" height="25.6986" fill="white" transform="translate(36.0781 52.0557) rotate(-43.1142)"/></clipPath></defs><g transform="matrix(1, 0, 0, 1, 3.012047052383423, -3.0120480060577393)" id="object-2"><g filter="url(#filter0_d_1_14625)" transform="matrix(1, 0, 0, 1, 271.636078, 214.599915)"><g><path d="M24.5986 40.9973C24.5986 25.5361 24.5986 17.8056 29.4018 13.0024C34.205 8.19922 41.9356 8.19922 57.3967 8.19922H65.5962C81.0574 8.19922 88.788 8.19922 93.5912 13.0024C98.3943 17.8056 98.3943 25.5361 98.3943 40.9973V82.8149C98.3943 98.276 98.3943 106.007 93.5912 110.81C88.788 115.613 81.0574 115.613 65.5963 115.613H57.3967C41.9356 115.613 34.205 115.613 29.4018 110.81C24.5986 106.007 24.5986 98.276 24.5986 82.8149V40.9973Z" style="paint-order: stroke;" fill="#F7C5BA"/></g></g><path d="M 321.101 311.371 L 317.284 311.371 L 316.628 313.234 L 315.067 313.234 L 318.333 304.103 L 320.065 304.103 L 323.332 313.234 L 321.757 313.234 L 321.101 311.371 Z M 320.682 310.151 L 319.199 305.914 L 317.703 310.151 L 320.682 310.151 Z M 327.376 313.352 C 326.807 313.352 326.296 313.252 325.841 313.051 C 325.395 312.841 325.041 312.561 324.778 312.211 C 324.516 311.852 324.376 311.454 324.358 311.017 L 325.906 311.017 C 325.933 311.323 326.077 311.581 326.339 311.791 C 326.611 311.992 326.947 312.093 327.35 312.093 C 327.769 312.093 328.093 312.014 328.32 311.857 C 328.557 311.691 328.675 311.481 328.675 311.227 C 328.675 310.956 328.543 310.755 328.281 310.623 C 328.027 310.492 327.621 310.348 327.061 310.191 C 326.519 310.042 326.077 309.898 325.736 309.758 C 325.395 309.618 325.097 309.403 324.844 309.115 C 324.599 308.826 324.476 308.446 324.476 307.973 C 324.476 307.589 324.59 307.239 324.818 306.924 C 325.045 306.6 325.369 306.347 325.788 306.163 C 326.217 305.979 326.707 305.887 327.258 305.887 C 328.08 305.887 328.74 306.097 329.239 306.517 C 329.746 306.928 330.017 307.492 330.052 308.21 L 328.557 308.21 C 328.53 307.886 328.399 307.628 328.163 307.436 C 327.927 307.243 327.608 307.147 327.205 307.147 C 326.812 307.147 326.51 307.221 326.3 307.37 C 326.09 307.519 325.985 307.715 325.985 307.96 C 325.985 308.153 326.055 308.315 326.195 308.446 C 326.335 308.577 326.506 308.682 326.707 308.761 C 326.908 308.831 327.205 308.922 327.599 309.036 C 328.124 309.176 328.552 309.32 328.885 309.469 C 329.226 309.609 329.519 309.819 329.764 310.099 C 330.008 310.379 330.135 310.75 330.144 311.214 C 330.144 311.625 330.03 311.992 329.803 312.316 C 329.576 312.639 329.252 312.893 328.832 313.077 C 328.421 313.26 327.936 313.352 327.376 313.352 Z M 332.521 305.048 C 332.25 305.048 332.022 304.956 331.839 304.772 C 331.655 304.589 331.563 304.361 331.563 304.09 C 331.563 303.819 331.655 303.592 331.839 303.408 C 332.022 303.224 332.25 303.132 332.521 303.132 C 332.783 303.132 333.006 303.224 333.19 303.408 C 333.374 303.592 333.466 303.819 333.466 304.09 C 333.466 304.361 333.374 304.589 333.19 304.772 C 333.006 304.956 332.783 305.048 332.521 305.048 Z M 333.256 306.006 L 333.256 313.234 L 331.76 313.234 L 331.76 306.006 L 333.256 306.006 Z M 334.721 309.587 C 334.721 308.861 334.869 308.218 335.167 307.659 C 335.473 307.099 335.884 306.666 336.4 306.36 C 336.925 306.045 337.502 305.887 338.132 305.887 C 338.7 305.887 339.194 306.001 339.614 306.229 C 340.043 306.447 340.384 306.723 340.637 307.055 L 340.637 306.006 L 342.146 306.006 L 342.146 313.234 L 340.637 313.234 L 340.637 312.158 C 340.384 312.5 340.038 312.784 339.601 313.011 C 339.164 313.239 338.665 313.352 338.105 313.352 C 337.484 313.352 336.916 313.195 336.4 312.88 C 335.884 312.556 335.473 312.11 335.167 311.542 C 334.869 310.965 334.721 310.313 334.721 309.587 Z M 340.637 309.613 C 340.637 309.115 340.532 308.682 340.323 308.315 C 340.121 307.947 339.855 307.667 339.522 307.475 C 339.19 307.282 338.831 307.186 338.447 307.186 C 338.062 307.186 337.703 307.282 337.371 307.475 C 337.038 307.659 336.767 307.934 336.557 308.301 C 336.356 308.66 336.256 309.089 336.256 309.587 C 336.256 310.086 336.356 310.523 336.557 310.899 C 336.767 311.275 337.038 311.564 337.371 311.765 C 337.712 311.957 338.07 312.053 338.447 312.053 C 338.831 312.053 339.19 311.957 339.522 311.765 C 339.855 311.572 340.121 311.293 340.323 310.925 C 340.532 310.549 340.637 310.112 340.637 309.613 Z M 347.758 305.887 C 348.326 305.887 348.833 306.006 349.28 306.242 C 349.734 306.478 350.089 306.828 350.342 307.291 C 350.596 307.755 350.723 308.315 350.723 308.97 L 350.723 313.234 L 349.24 313.234 L 349.24 309.193 C 349.24 308.546 349.078 308.052 348.755 307.711 C 348.431 307.361 347.989 307.186 347.43 307.186 C 346.87 307.186 346.424 307.361 346.092 307.711 C 345.768 308.052 345.606 308.546 345.606 309.193 L 345.606 313.234 L 344.111 313.234 L 344.111 306.006 L 345.606 306.006 L 345.606 306.832 C 345.851 306.535 346.162 306.303 346.538 306.137 C 346.922 305.971 347.329 305.887 347.758 305.887 Z" style="stroke-width: 1; paint-order: stroke;" fill="#FB471D"/><g clip-path="url(#clip0_1_14625)" transform="matrix(1, 0, 0, 1, 271.636078, 214.599915)"><path d="M62.525 47.1256C56.3527 52.9045 48.9601 54.1519 48.1388 54.276C46.8742 54.4635 45.6102 54.1549 44.5824 53.3937C43.5543 52.6321 42.879 51.518 42.6926 50.2536C42.4579 48.6967 43.0064 47.1189 44.1577 46.041C44.8652 45.3787 45.7434 44.9541 46.7048 44.8033C46.907 44.7712 51.8808 43.9373 55.9062 40.1685C58.2769 37.949 59.8458 35.1458 60.5685 31.8386C60.7783 30.885 61.2599 30.0292 61.9716 29.3629C63.1229 28.2849 64.7297 27.8376 66.2678 28.1742C67.5175 28.443 68.5845 29.1905 69.2767 30.2665C69.969 31.3425 70.1975 32.6279 69.9232 33.8739C68.7749 39.1458 66.2872 43.6034 62.525 47.1256Z" style="paint-order: stroke;" fill="#F4A360"/><path d="M63.2908 47.9446C57.1104 53.731 49.7242 55.1637 48.3061 55.3924C46.7472 55.6253 45.1867 55.2374 43.9155 54.2992C42.642 53.3592 41.8124 51.9826 41.5809 50.422C41.2908 48.4995 41.9673 46.5561 43.391 45.2231C44.2619 44.4078 45.3416 43.8767 46.5136 43.6872C46.5521 43.6827 51.3201 42.9121 55.1323 39.3429C57.3305 37.2849 58.7876 34.6771 59.4628 31.5918C59.7198 30.4152 60.3198 29.3592 61.198 28.5369C62.6218 27.204 64.6055 26.6568 66.504 27.0726C68.0492 27.4119 69.3693 28.3299 70.2196 29.6576C71.0722 30.9877 71.3566 32.5704 71.0205 34.1136C69.8215 39.6118 67.2209 44.2651 63.2908 47.9446ZM44.9235 46.86C44.0464 47.6812 43.6247 48.8864 43.7953 50.084C44.093 52.0835 45.9628 53.465 47.9637 53.1652C48.2753 53.1193 55.689 51.983 61.7509 46.3075C65.337 42.95 67.7157 38.6873 68.8206 33.638C69.0311 32.6831 68.8563 31.7023 68.3282 30.8782C67.7994 30.0535 66.9802 29.4841 66.0219 29.2757C64.8441 29.0198 63.6149 29.3595 62.7328 30.1854C62.187 30.6964 61.815 31.351 61.6572 32.0785C60.8847 35.615 59.2061 38.6136 56.6675 40.9904C52.5106 44.8822 47.4317 45.821 46.8661 45.9154C46.1394 46.0253 45.4662 46.3518 44.9235 46.86Z" style="paint-order: stroke;" fill="#4C2F1B"/><path d="M66.1801 50.3965C60.7471 55.4831 53.7323 57.9583 48.975 58.5822C47.707 58.7499 46.4518 58.4112 45.4359 57.6311C44.4203 56.8506 43.7725 55.7258 43.6094 54.454C43.4124 52.9295 43.9634 51.3869 45.0871 50.3349C45.8187 49.6499 46.7319 49.2149 47.7276 49.0846C47.8055 49.0715 49.7858 48.7989 52.3587 47.8368C55.2373 46.7607 57.6917 45.2876 59.6504 43.4538C62.4888 40.7964 64.1968 37.4279 64.7209 33.4448C64.8658 32.3495 65.388 31.3283 66.1954 30.5723C67.2468 29.588 68.6718 29.1306 70.0985 29.3165C71.3632 29.4812 72.4956 30.13 73.2751 31.1467C74.0546 32.1633 74.3884 33.4172 74.2258 34.6861C73.4033 40.8836 70.6974 46.1672 66.1801 50.3965Z" style="paint-order: stroke;" fill="#FF6C4A"/><path d="M66.9543 51.224C61.3327 56.4872 54.0578 59.0534 49.1241 59.7005C47.5557 59.9043 46.0029 59.4867 44.7516 58.524C43.5039 57.5644 42.703 56.1708 42.496 54.6004C42.249 52.7191 42.9316 50.8187 44.3213 49.5176C45.2261 48.6704 46.3515 48.136 47.5756 47.972C47.5919 47.9698 49.4882 47.7115 51.9675 46.7878C54.7095 45.7625 57.0368 44.3659 58.8843 42.6361C61.5249 40.1638 63.1129 37.0233 63.6039 33.3014C63.7781 31.9486 64.4247 30.6879 65.4256 29.7508C66.7277 28.5317 68.4847 27.9707 70.2454 28.2119C71.8074 28.4138 73.1989 29.2164 74.1661 30.4714C75.1303 31.7227 75.5465 33.2753 75.339 34.8427C74.4866 41.3014 71.6658 46.8129 66.9543 51.224ZM45.857 51.1579C44.9971 51.963 44.5733 53.1406 44.7228 54.308C44.9833 56.3134 46.826 57.7314 48.8301 57.4702C53.4137 56.8702 60.1773 54.4823 65.4143 49.5791C69.7377 45.5313 72.3254 40.4715 73.1052 34.5396C73.233 33.57 72.976 32.6084 72.3807 31.8327C71.7848 31.0557 70.9218 30.5576 69.9496 30.4306C68.8532 30.2897 67.7642 30.6401 66.9614 31.3918C66.3426 31.9711 65.9419 32.7531 65.8333 33.5943C65.2762 37.8414 63.4547 41.4352 60.4197 44.2767C58.353 46.2117 55.7737 47.7642 52.7528 48.8914C49.9953 49.9192 47.9014 50.1962 47.8806 50.1986C47.1189 50.2999 46.419 50.6317 45.857 51.1579Z" style="paint-order: stroke;" fill="#4C2F1B"/><path d="M55.0475 52.4554C54.1763 53.2711 53.075 52.7279 52.3431 52.3713C51.5773 51.9939 51.1757 51.8454 50.9878 52.0213C50.5321 52.448 49.8203 52.4249 49.394 51.9695C48.9676 51.5142 48.9914 50.8024 49.4472 50.3757C50.7783 49.1294 52.3762 49.8748 53.2758 50.3143C53.1677 49.494 53.0623 48.2353 54.0418 47.3183C55.0291 46.394 56.3096 46.5517 57.1585 46.6489C57.3127 46.6695 57.517 46.6952 57.6756 46.7044C57.6991 46.4576 57.6887 46.0776 57.6817 45.8297C57.6569 44.9459 57.6323 43.9422 58.3121 43.3058C59.0195 42.6434 60.1164 42.7405 61.0854 42.8304C61.2012 42.8416 61.3322 42.8537 61.4678 42.8622C61.4646 42.8349 61.4615 42.8154 61.4545 42.7918C61.3237 41.9473 61.1308 40.6668 62.0419 39.8137C62.7575 39.1438 63.7919 39.2467 64.7026 39.3465C64.7917 39.3532 64.8996 39.3645 65.0076 39.3758C65 39.3678 65.0006 39.36 64.9967 39.3558C64.5591 38.4239 63.7452 36.6973 65.0645 35.4622C65.5202 35.0355 66.232 35.0586 66.6583 35.514C67.0847 35.9693 67.0609 36.6811 66.6052 37.1078C66.532 37.3261 66.8719 38.0497 67.0387 38.3958C67.4219 39.2056 67.9465 40.319 67.0711 41.1386C66.3713 41.7937 65.3603 41.6913 64.4685 41.5961C64.2178 41.5686 63.8282 41.5291 63.5953 41.5368C63.5759 41.7725 63.6426 42.2043 63.6806 42.4613C63.7983 43.2201 63.9285 44.0802 63.281 44.6864C62.6773 45.2516 61.8051 45.169 60.8784 45.0849C60.6082 45.0605 60.2062 45.024 59.9353 45.0311C59.92 45.2551 59.9328 45.5653 59.9372 45.7787C59.9641 46.7125 59.9869 47.7705 59.2591 48.4519C58.5635 49.1031 57.6336 48.9917 56.8816 48.9011C56.3492 48.8376 55.7978 48.7694 55.578 48.9752C55.402 49.14 55.4457 49.571 55.5227 50.1662C55.6243 50.844 55.7512 51.7966 55.0475 52.4554Z" style="paint-order: stroke;" fill="#F9AF38"/><path d="M69.3329 54.5813C63.5882 59.9597 56.9346 61.9318 55.5957 62.1362C54.3305 62.3237 53.1784 62.1429 52.2669 61.61C51.2262 61.0029 50.5445 59.9545 50.3514 58.659C50.1167 57.102 50.6652 55.5243 51.8165 54.4464C52.524 53.784 53.4019 53.3591 54.3637 53.208C54.5658 53.1759 59.5396 52.342 63.5654 48.5729C65.936 46.3534 67.5049 43.5502 68.2277 40.243C68.4378 39.2897 68.9194 38.4339 69.6311 37.7676C70.7828 36.6893 72.3889 36.2419 73.927 36.5785C75.1999 36.8559 76.1888 37.5194 76.7837 38.4913C77.3601 39.4359 77.5222 40.6026 77.2443 41.8678C75.9552 47.7364 72.6827 51.445 69.3329 54.5813Z" style="paint-order: stroke;" fill="#F4A360"/><path d="M70.0987 55.4074C63.3184 61.7554 55.8225 63.2389 55.7477 63.2531C54.2365 63.4808 52.8307 63.2504 51.6928 62.5838C50.349 61.7944 49.4749 60.4601 49.2319 58.8268C48.9418 56.9043 49.6183 54.9609 51.042 53.6279C51.9167 52.809 52.9984 52.2807 54.1697 52.1004C54.212 52.095 59.0056 51.2984 62.7902 47.7551C64.9884 45.6971 66.4451 43.0896 67.1207 40.004C67.378 38.8278 67.9774 37.7717 68.8556 36.9494C70.2793 35.6165 72.263 35.0693 74.1616 35.4851C75.7413 35.8282 76.9774 36.6664 77.7358 37.9093C78.4684 39.1099 78.6756 40.563 78.3356 42.1119C76.9917 48.2775 73.5825 52.1457 70.0987 55.4074ZM52.5785 55.2683C51.7002 56.0905 51.2772 57.297 51.4468 58.4956C51.7292 60.3832 53.2503 61.353 55.4167 61.0291C55.4816 61.019 62.346 59.5798 68.5548 53.7668C71.7711 50.7556 74.9148 47.2017 76.1338 41.6328C76.3536 40.6337 76.2328 39.7345 75.7834 39.0339C75.3485 38.3558 74.6207 37.8896 73.6772 37.6844C72.4991 37.4288 71.2698 37.7686 70.3881 38.5941C69.8426 39.1048 69.4706 39.7594 69.3125 40.4871C68.54 44.0236 66.861 47.0226 64.3228 49.399C60.1627 53.2939 55.0866 54.23 54.5214 54.3241C53.7943 54.4336 53.1208 54.7605 52.5785 55.2683Z" style="paint-order: stroke;" fill="#4C2F1B"/><path d="M60.3265 58.1191C60.2105 58.2278 60.0495 58.2885 59.8801 58.2677C59.5718 58.2342 59.3481 57.9559 59.3857 57.6433C59.5672 56.0418 58.2659 55.2211 58.2127 55.1889C57.9468 55.025 57.8655 54.6817 58.0256 54.4122C58.1894 54.1465 58.5295 54.0607 58.7986 54.2203C58.8822 54.2695 60.7758 55.4348 60.508 57.7691C60.4846 57.9113 60.4222 58.0295 60.3265 58.1191ZM68.0069 52.8773C67.9351 52.9446 67.8445 52.9919 67.7427 53.0195C67.4382 53.0871 67.1389 52.8953 67.072 52.5912C66.7191 50.9727 65.3137 50.8418 65.3023 50.8373C64.9934 50.8117 64.7623 50.541 64.7882 50.2321C64.8139 49.9228 65.0851 49.6919 65.394 49.7175C66.1662 49.7813 67.7489 50.4135 68.172 52.3481C68.2153 52.5468 68.1468 52.7463 68.0069 52.8773Z" style="paint-order: stroke;" fill="#4C2F1B"/><path d="M73.8376 45.2748C73.7734 45.3349 73.6945 45.3785 73.6083 45.4066C73.3076 45.4936 72.9997 45.3172 72.9126 45.0162C72.504 43.5701 70.9417 43.6005 70.8761 43.6021C70.5662 43.6077 70.3068 43.3707 70.2937 43.0602C70.2806 42.7504 70.5257 42.4907 70.8359 42.4777C71.7048 42.4438 73.4799 42.8655 73.9991 44.7102C74.0545 44.9212 73.9855 45.1363 73.8376 45.2748Z" style="paint-order: stroke;" fill="#4C2F1B"/><path d="M75.1561 30.0157C75.0523 30.1129 74.922 30.1824 74.7816 30.2165L73.3921 30.5433C72.9663 30.6415 72.5372 30.3919 72.4157 29.9733L72.0305 28.64C71.9438 28.3393 72.0317 28.0243 72.2596 27.8109C72.5236 27.5638 72.9124 27.5146 73.224 27.6948L74.9992 28.7014C75.2275 28.8328 75.3786 29.0581 75.4123 29.319C75.4418 29.576 75.3479 29.8362 75.1561 30.0157Z" style="paint-order: stroke;" fill="#FF6C4A"/><path d="M72.6409 28.2185C72.717 28.1473 72.8337 28.1201 72.944 28.1818L74.719 29.188C74.8823 29.2823 74.8909 29.4918 74.771 29.604C74.7391 29.6339 74.6996 29.6557 74.653 29.6698L73.2635 29.9966C73.127 30.0271 72.9941 29.9491 72.9556 29.8202L72.5704 28.4791C72.5425 28.3776 72.5729 28.2822 72.6409 28.2185ZM71.8706 27.3957C71.4867 27.7551 71.3412 28.2883 71.483 28.7925L71.8684 30.1255C72.0734 30.8328 72.7987 31.2554 73.5169 31.0851L74.9064 30.7584C75.1443 30.7006 75.3614 30.5874 75.5374 30.4226C75.8575 30.1229 76.0194 29.6789 75.9639 29.2437C75.9124 28.8121 75.6504 28.4205 75.2704 28.2064L73.4951 27.1999C72.9711 26.9043 72.3144 26.9801 71.8706 27.3957Z" style="paint-order: stroke;" fill="#4C2F1B"/><path d="M43.2802 57.7161C43.0884 57.8956 42.8226 57.9723 42.5645 57.9214C42.3068 57.8703 42.0955 57.7085 41.9754 57.4686L41.0878 55.6309C40.9323 55.3046 41.0031 54.9235 41.2709 54.6727C41.4988 54.4594 41.8186 54.392 42.1133 54.4987L43.4183 54.9707C43.8274 55.1195 44.0492 55.5645 43.9229 55.9825L43.5054 57.3475C43.4618 57.4934 43.3843 57.6186 43.2802 57.7161Z" style="paint-order: stroke;" fill="#FF6C4A"/><path d="M41.656 55.0921C41.724 55.0284 41.8177 55.0005 41.921 55.0385L43.2257 55.5108C43.3518 55.5577 43.4246 55.6993 43.3815 55.8297L42.964 57.1947C42.9472 57.2407 42.9225 57.2782 42.8906 57.3081C42.7707 57.4204 42.5623 57.398 42.4789 57.2288L41.5913 55.3912C41.5448 55.2783 41.5799 55.1633 41.656 55.0921ZM40.8857 54.2693C40.4418 54.6848 40.3155 55.3355 40.5834 55.8859L41.471 57.7235C41.6633 58.1207 42.0332 58.4041 42.4605 58.4838C42.8956 58.5642 43.3451 58.4351 43.6649 58.1358C43.8409 57.971 43.9719 57.7589 44.0414 57.5282L44.4589 56.1632C44.6757 55.4574 44.3024 54.7059 43.6056 54.4585L42.3008 53.9861C41.8112 53.7997 41.2696 53.9099 40.8857 54.2693Z" style="paint-order: stroke;" fill="#4C2F1B"/></g></g></svg>