<?xml version="1.0" encoding="utf-8"?>
<svg xmlns="http://www.w3.org/2000/svg" viewBox="380.7577 228.3303 66.1955 96.3515" width="66.1955px" height="96.3515px"><defs><filter id="filter0_d_1_14602" x="-0.000219345" y="0.000414848" width="110.326" height="140.482" filterUnits="userSpaceOnUse" color-interpolation-filters="sRGB"><feFlood flood-opacity="0" result="BackgroundImageFix"/><feColorMatrix in="SourceAlpha" type="matrix" values="0 0 0 0 0 0 0 0 0 0 0 0 0 0 0 0 0 0 127 0" result="hardAlpha"/><feOffset dy="14.7101"/><feGaussianBlur stdDeviation="11.0326"/><feColorMatrix type="matrix" values="0 0 0 0 0.529412 0 0 0 0 0.490196 0 0 0 0 0.784314 0 0 0 0.25 0"/><feBlend mode="normal" in2="BackgroundImageFix" result="effect1_dropShadow_1_14602"/><feBlend mode="normal" in="SourceGraphic" in2="effect1_dropShadow_1_14602" result="shape"/></filter><clipPath id="clip0_1_14602"><rect width="34.5688" height="34.5688" fill="white" transform="translate(37.5107 22.0654)"/></clipPath></defs><g transform="matrix(1, 0, 0, 1, 53.01205062866211, -3.012049913406372)" id="object-1"><g opacity="0.35" filter="url(#filter0_d_1_14602)" transform="matrix(1, 0, 0, 1, 305.680725, 223.986832)"><path d="M22.0649 36.7756C22.0649 22.9068 22.0649 15.9725 26.3734 11.664C30.6819 7.35547 37.6163 7.35547 51.4852 7.35547H58.8402C72.709 7.35547 79.6434 7.35547 83.9519 11.664C88.2604 15.9725 88.2604 22.9069 88.2604 36.7757V74.2865C88.2604 88.1553 88.2604 95.0897 83.9519 99.3982C79.6434 103.707 72.709 103.707 58.8402 103.707H51.4852C37.6163 103.707 30.6819 103.707 26.3734 99.3982C22.0649 95.0897 22.0649 88.1553 22.0649 74.2865V36.7756Z" fill="#EDB66B"/></g><path d="M 346.108 303.831 C 346.979 303.831 347.74 304 348.391 304.337 C 349.05 304.667 349.556 305.145 349.909 305.773 C 350.27 306.393 350.45 307.118 350.45 307.95 C 350.45 308.781 350.27 309.503 349.909 310.115 C 349.556 310.727 349.05 311.198 348.391 311.527 C 347.74 311.849 346.979 312.01 346.108 312.01 L 343.436 312.01 L 343.436 303.831 L 346.108 303.831 Z M 346.108 310.915 C 347.065 310.915 347.798 310.656 348.308 310.139 C 348.818 309.621 349.073 308.891 349.073 307.95 C 349.073 307.001 348.818 306.259 348.308 305.726 C 347.798 305.192 347.065 304.925 346.108 304.925 L 344.778 304.925 L 344.778 310.915 L 346.108 310.915 Z M 354.592 312.116 C 353.98 312.116 353.427 311.978 352.933 311.704 C 352.439 311.421 352.05 311.029 351.768 310.527 C 351.486 310.017 351.344 309.429 351.344 308.762 C 351.344 308.103 351.489 307.518 351.78 307.008 C 352.07 306.498 352.466 306.106 352.968 305.832 C 353.47 305.557 354.031 305.42 354.651 305.42 C 355.271 305.42 355.832 305.557 356.334 305.832 C 356.836 306.106 357.232 306.498 357.523 307.008 C 357.813 307.518 357.958 308.103 357.958 308.762 C 357.958 309.421 357.809 310.005 357.511 310.515 C 357.213 311.025 356.805 311.421 356.287 311.704 C 355.777 311.978 355.212 312.116 354.592 312.116 Z M 354.592 310.951 C 354.937 310.951 355.259 310.868 355.557 310.704 C 355.863 310.539 356.11 310.292 356.299 309.962 C 356.487 309.633 356.581 309.233 356.581 308.762 C 356.581 308.291 356.491 307.895 356.31 307.573 C 356.13 307.244 355.891 306.997 355.593 306.832 C 355.294 306.667 354.973 306.585 354.628 306.585 C 354.282 306.585 353.961 306.667 353.663 306.832 C 353.372 306.997 353.141 307.244 352.968 307.573 C 352.796 307.895 352.709 308.291 352.709 308.762 C 352.709 309.46 352.886 310.001 353.239 310.386 C 353.6 310.762 354.051 310.951 354.592 310.951 Z M 362.556 305.42 C 363.066 305.42 363.521 305.526 363.921 305.737 C 364.329 305.949 364.646 306.263 364.874 306.679 C 365.102 307.095 365.215 307.597 365.215 308.185 L 365.215 312.01 L 363.885 312.01 L 363.885 308.385 C 363.885 307.805 363.74 307.361 363.45 307.055 C 363.16 306.742 362.764 306.585 362.261 306.585 C 361.759 306.585 361.359 306.742 361.061 307.055 C 360.771 307.361 360.626 307.805 360.626 308.385 L 360.626 312.01 L 359.284 312.01 L 359.284 305.526 L 360.626 305.526 L 360.626 306.267 C 360.845 306 361.124 305.792 361.461 305.643 C 361.806 305.494 362.171 305.42 362.556 305.42 Z M 366.479 308.738 C 366.479 308.087 366.613 307.51 366.879 307.008 C 367.154 306.506 367.523 306.118 367.986 305.843 C 368.456 305.561 368.974 305.42 369.539 305.42 C 370.049 305.42 370.492 305.522 370.869 305.726 C 371.253 305.922 371.559 306.169 371.787 306.467 L 371.787 305.526 L 373.14 305.526 L 373.14 312.01 L 371.787 312.01 L 371.787 311.045 C 371.559 311.351 371.249 311.606 370.857 311.81 C 370.465 312.014 370.018 312.116 369.516 312.116 C 368.958 312.116 368.449 311.975 367.986 311.692 C 367.523 311.402 367.154 311.002 366.879 310.492 C 366.613 309.974 366.479 309.389 366.479 308.738 Z M 371.787 308.762 C 371.787 308.315 371.693 307.926 371.504 307.597 C 371.324 307.267 371.085 307.016 370.786 306.844 C 370.488 306.671 370.167 306.585 369.821 306.585 C 369.476 306.585 369.155 306.671 368.856 306.844 C 368.558 307.008 368.315 307.256 368.127 307.585 C 367.946 307.907 367.856 308.291 367.856 308.738 C 367.856 309.185 367.946 309.578 368.127 309.915 C 368.315 310.252 368.558 310.511 368.856 310.692 C 369.162 310.864 369.484 310.951 369.821 310.951 C 370.167 310.951 370.488 310.864 370.786 310.692 C 371.085 310.519 371.324 310.268 371.504 309.939 C 371.693 309.601 371.787 309.209 371.787 308.762 Z M 376.467 306.62 L 376.467 310.209 C 376.467 310.453 376.522 310.629 376.632 310.739 C 376.75 310.841 376.946 310.892 377.22 310.892 L 378.044 310.892 L 378.044 312.01 L 376.985 312.01 C 376.381 312.01 375.918 311.869 375.596 311.586 C 375.275 311.304 375.114 310.845 375.114 310.209 L 375.114 306.62 L 374.349 306.62 L 374.349 305.526 L 375.114 305.526 L 375.114 303.913 L 376.467 303.913 L 376.467 305.526 L 378.044 305.526 L 378.044 306.62 L 376.467 306.62 Z" fill="#E28B14" style="stroke-width: 1;"/><g clip-path="url(#clip0_1_14602)" transform="matrix(1, 0, 0, 1, 305.680725, 223.986832)"><path d="M54.7945 23.0117C45.7819 23.0117 38.4561 30.3155 38.4561 39.3503C38.4561 48.3635 45.7597 55.6889 54.7945 55.6889C63.8075 55.6889 71.1329 48.3852 71.1329 39.3503C71.1329 30.3155 63.8075 23.0117 54.7945 23.0117ZM54.7945 44.767C51.7977 44.767 49.3557 42.325 49.3557 39.3282C49.3557 36.3313 51.7977 33.8894 54.7945 33.8894C57.7913 33.8894 60.2332 36.3313 60.2332 39.3282C60.2332 42.3476 57.7917 44.767 54.7945 44.767Z" fill="#EDB66B"/><path d="M47.4202 44.677C47.0165 44.677 46.6765 44.5281 46.4213 44.2732C45.8261 43.6568 45.8473 42.5944 45.8899 41.3407C45.9112 40.2566 45.9537 38.8965 45.4436 38.3655C45.3372 38.2379 45.1249 38.0894 44.6361 38.0681H44.551C44.0196 38.0681 43.6372 38.1745 43.4245 38.4081C42.9994 38.8544 43.0633 39.8533 43.1058 40.6608C43.1696 41.5108 43.2122 42.255 42.7233 42.68C42.3621 43.0199 41.8733 43.1901 41.3419 43.1901C40.3005 43.1901 39.068 42.4677 38.6642 41.6177C38.6221 41.5321 38.6008 41.4683 38.6008 41.3832L38.5796 41.1705C38.5158 40.363 38.4307 39.4704 38.4307 39.0879C38.4307 30.077 45.7622 22.7666 54.7513 22.7666C63.7404 22.7666 71.0724 30.0983 71.0724 39.0879C71.0724 39.4491 71.0512 39.8316 71.0299 40.1932C70.9448 41.3194 70.031 42.1907 68.9261 42.1907C68.6926 42.1907 68.4373 42.1481 68.2037 42.0631C67.141 41.6593 66.2484 40.8944 65.3984 40.1503C64.1659 39.0662 62.9968 38.0677 61.3393 38.0252C60.2978 38.0039 59.3627 37.43 58.8743 36.5374C57.6843 34.3272 57.5354 34.2421 54.539 34.2421C49.0139 34.2421 49.0139 37.3449 49.0139 38.3651C49.0139 38.939 49.0564 39.555 49.0777 40.1503C49.1841 41.8929 49.2692 43.4228 48.5251 44.2094C48.2915 44.5072 47.8878 44.677 47.4202 44.677Z" fill="#86522C"/><path d="M54.7942 23.4681C63.4221 23.4681 70.435 30.4599 70.435 39.1092C70.435 39.4704 70.4138 39.8316 70.3925 40.1719C70.3287 40.9369 69.6914 41.5108 68.9903 41.5108C68.8414 41.5108 68.6716 41.4895 68.5227 41.4257C66.1424 40.5331 64.5912 37.4091 61.4251 37.3457C60.6602 37.3244 59.9161 36.8994 59.5549 36.2191C58.216 33.7116 57.7697 33.5626 54.6032 33.5626C51.0755 33.5626 48.3765 34.7526 48.3765 38.3655C48.3765 40.9581 49.0355 43.9758 47.4414 43.9758C45.3376 43.9758 48.2488 37.4729 44.679 37.3878H44.5726C41.1087 37.3878 43.0215 41.5108 42.2991 42.1906C42.0438 42.4247 41.7252 42.5093 41.3852 42.5093C40.5352 42.5093 39.6001 41.9141 39.3448 41.3406C39.3023 40.8943 39.1959 39.5554 39.1959 39.1092C39.1534 30.4599 46.1663 23.4681 54.7942 23.4681ZM54.7942 22.0654C45.4014 22.0654 37.772 29.6949 37.772 39.0879C37.772 39.4916 37.8571 40.4055 37.9209 41.2342L37.9422 41.4465C37.9634 41.6167 38.006 41.7865 38.0698 41.9354C38.6012 43.0402 40.0464 43.8907 41.364 43.8907C42.0651 43.8907 42.7028 43.6567 43.2129 43.2104C43.9566 42.5518 43.8928 41.5742 43.829 40.6178C43.8077 40.1289 43.7226 39.13 43.9566 38.8964C43.9991 38.8539 44.1902 38.7688 44.5726 38.7688H44.6364C44.7003 38.7688 44.8913 38.7688 44.9551 38.8326C45.2737 39.1513 45.2312 40.554 45.2099 41.3189C45.1674 42.6578 45.1461 43.9328 45.9323 44.7403C46.3148 45.1441 46.8462 45.3568 47.4414 45.3568C48.1004 45.3568 48.6738 45.1228 49.0989 44.6557C50.034 43.6567 49.9489 41.9992 49.8425 40.0864C49.8 39.5125 49.7787 38.8964 49.7787 38.3438C49.7787 37.3235 49.7787 34.9223 54.6028 34.9223C57.3017 34.9223 57.3017 34.9223 58.3215 36.8564C58.9167 37.9826 60.1066 38.6841 61.3817 38.7054C62.7844 38.7267 63.8046 39.6188 64.9945 40.6603C65.9084 41.4465 66.8435 42.2757 68.0122 42.7008C68.3095 42.8071 68.6499 42.8709 68.9685 42.8709C70.435 42.8709 71.6675 41.7231 71.7522 40.2357C71.7735 39.8533 71.7947 39.4495 71.7947 39.0671C71.8169 29.7162 64.1875 22.0654 54.7942 22.0654Z" fill="#4C2F1B"/><path d="M57.14 54.4047C57.2583 54.7141 57.744 54.8156 58.2249 54.6312C58.7057 54.4473 58.9996 54.0475 58.8812 53.7382C58.7629 53.4288 58.2772 53.3278 57.7963 53.5117C57.3155 53.6961 57.0216 54.0958 57.14 54.4047Z" fill="#E3A358"/><path d="M66.0971 48.681C66.3041 49.2217 66.8075 49.6019 67.4178 49.6786C68.0281 49.7548 68.6521 49.5159 69.0554 49.0519C69.4587 48.5875 69.5796 47.9683 69.3727 47.4276C69.1657 46.8865 68.6623 46.5067 68.052 46.43C67.4417 46.3538 66.8173 46.5927 66.414 47.0567C66.0107 47.5211 65.8901 48.1403 66.0971 48.681Z" fill="#E3A358"/><path d="M50.6287 55.4261C50.8357 55.9668 51.3392 56.347 51.9494 56.4237C52.5597 56.4999 53.1841 56.261 53.5874 55.797C53.9907 55.3326 54.1117 54.7134 53.9048 54.1727C53.6978 53.6321 53.1943 53.2518 52.5841 53.1751C51.9738 53.0989 51.3494 53.3378 50.9461 53.8018C50.5428 54.2663 50.4218 54.8854 50.6287 55.4261Z" fill="#E3A358"/><path d="M47.2237 52.9283C47.5486 53.0019 47.8739 52.9589 48.0778 52.8148C48.2812 52.6708 48.3317 52.4483 48.2103 52.2303C48.0888 52.0127 47.8141 51.8327 47.4892 51.7592C47.1644 51.6851 46.8391 51.7286 46.6352 51.8726C46.4318 52.0167 46.3812 52.2391 46.5027 52.4567C46.6237 52.6748 46.8989 52.8543 47.2237 52.9283Z" fill="#E3A358"/><path d="M54.1778 46.3304C54.4486 46.392 54.7127 46.3871 54.8709 46.3171C55.0291 46.247 55.057 46.1234 54.9449 45.9922C54.8324 45.861 54.5961 45.7422 54.3254 45.6806C54.0546 45.619 53.7904 45.6239 53.6322 45.6939C53.474 45.764 53.4461 45.8876 53.5582 46.0188C53.6708 46.1504 53.907 46.2688 54.1778 46.3304Z" fill="#E3A358"/><path d="M41.9494 47.8529C42.1586 47.9004 42.3682 47.8698 42.5003 47.7732C42.6324 47.6761 42.6656 47.5276 42.5889 47.3836C42.5118 47.2391 42.3359 47.1212 42.1271 47.0738C41.9179 47.0264 41.7083 47.0565 41.5767 47.1536C41.4446 47.2502 41.4109 47.3991 41.4881 47.5432C41.5643 47.6872 41.7407 47.8055 41.9494 47.8529Z" fill="#E3A358"/><path d="M50.3694 44.7655C50.6451 44.9525 50.9376 45.0695 51.137 45.0722C51.3365 45.0748 51.4127 44.9627 51.3365 44.7784C51.2607 44.5935 51.044 44.3649 50.7683 44.1778C50.4927 43.9908 50.2002 43.8738 50.0003 43.8711C49.8008 43.8685 49.7251 43.9806 49.8008 44.165C49.8771 44.3498 50.0938 44.5785 50.3694 44.7655Z" fill="#E3A358"/><path d="M54.7953 56.6342C45.2642 56.6342 37.5107 48.8806 37.5107 39.3502C37.5107 29.819 45.2642 22.0654 54.7953 22.0654C64.326 22.0654 72.0795 29.819 72.0795 39.3502C72.0795 48.8806 64.3256 56.6342 54.7953 56.6342ZM54.7953 23.957C46.3199 23.957 39.4249 30.8525 39.4249 39.3276C39.4249 47.8028 46.3203 54.6983 54.7953 54.6983C63.2703 54.6983 70.1658 47.8032 70.1658 39.3276C70.1658 30.8521 63.2703 23.957 54.7953 23.957ZM54.7953 45.7344C51.2747 45.7344 48.4108 42.8705 48.4108 39.3502C48.4108 35.8176 51.2747 32.9435 54.7953 32.9435C58.3155 32.9435 61.1794 35.8074 61.1794 39.3281C61.1794 42.8603 58.3155 45.7344 54.7953 45.7344ZM54.7953 34.8568C52.3299 34.8568 50.3245 36.8626 50.3245 39.3276C50.3245 41.7927 52.3304 43.7985 54.7953 43.7985C57.2603 43.7985 59.2662 41.7927 59.2662 39.3276C59.2657 36.8626 57.2603 34.8568 54.7953 34.8568Z" fill="#4C2F1B"/><path d="M55.7272 30.4263L51.9978 27.9622C51.8423 27.8731 51.8201 27.6737 51.9088 27.5181L52.3307 26.8968C52.4193 26.7412 52.6192 26.719 52.7747 26.8077L56.5041 29.2718C56.6597 29.3609 56.6818 29.5608 56.5928 29.7159L56.1708 30.3377C56.0827 30.4928 55.8828 30.515 55.7272 30.4263Z" fill="#DB79AD"/><path d="M40.9205 34.3327L41.8972 32.2018C41.9637 32.0463 42.1636 31.9798 42.3191 32.0463L43.0074 32.357C43.163 32.4234 43.2294 32.6233 43.163 32.7789L42.1862 34.9097C42.1193 35.0653 41.9198 35.1318 41.7643 35.0653L41.076 34.7546C40.9205 34.6655 40.8318 34.4882 40.9205 34.3327ZM65.1617 34.155L63.2968 32.7119C63.1638 32.6011 63.1412 32.4013 63.2303 32.2679L63.6965 31.6687C63.8073 31.5357 64.0072 31.5131 64.1406 31.6022L66.0055 33.0452C66.1385 33.1565 66.1611 33.3559 66.072 33.4893L65.6058 34.0889C65.495 34.244 65.2951 34.2658 65.1617 34.155Z" fill="#F6B173"/><path d="M60.4775 31.1362L59.19 28.228C59.1236 28.0724 59.19 27.8725 59.3456 27.8061L60.0334 27.4954C60.189 27.4289 60.3889 27.4954 60.4553 27.6509L61.7428 30.5592C61.8093 30.7147 61.7428 30.9141 61.5872 30.9811L60.899 31.2917C60.7443 31.3582 60.5666 31.2913 60.4775 31.1362ZM46.1813 36.5528L44.8938 33.6446C44.8273 33.4891 44.8938 33.2896 45.0494 33.2227L45.7376 32.912C45.8932 32.8456 46.0926 32.912 46.1596 33.0676L47.447 35.9758C47.5135 36.1314 47.447 36.3312 47.2914 36.3977L46.6032 36.7084C46.4259 36.797 46.2482 36.7084 46.1813 36.5528Z" fill="#F7E774"/><path d="M46.7815 30.537L48.1137 27.6509C48.1802 27.4954 48.3801 27.4289 48.5356 27.4954L49.2239 27.8061C49.3795 27.8725 49.4459 28.0724 49.3795 28.228L48.0473 31.114C47.9808 31.2696 47.7809 31.3361 47.6253 31.2696L46.9371 30.9589C46.7815 30.8924 46.715 30.7147 46.7815 30.537ZM66.8272 37.7743L67.2712 34.6219C67.2934 34.4441 67.4489 34.3334 67.6267 34.3555L68.3814 34.4663C68.5591 34.4885 68.6699 34.644 68.6478 34.8213L68.2037 37.9737C68.1815 38.151 68.026 38.2622 67.8487 38.2401L67.094 38.1293C66.9158 38.1071 66.805 37.952 66.8272 37.7743Z" fill="#EC6A69"/><path d="M45.1293 48.6381C45.2844 48.7179 45.4568 48.7347 45.5818 48.6829C45.7063 48.631 45.7644 48.518 45.7338 48.3864C45.7032 48.2548 45.5884 48.1249 45.4333 48.0451C45.2782 47.9654 45.1058 47.9485 44.9808 48.0004C44.8563 48.0522 44.7983 48.1652 44.8288 48.2969C44.8594 48.4281 44.9738 48.5583 45.1293 48.6381Z" fill="#E3A358"/><path d="M61.4532 49.4175C61.4926 49.5212 61.6561 49.5686 61.8808 49.5416C62.106 49.515 62.359 49.4179 62.5443 49.2876C62.7295 49.1573 62.8195 49.0129 62.7801 48.9092C62.7402 48.8054 62.5771 48.758 62.3519 48.7846C62.1268 48.8112 61.8737 48.9078 61.6885 49.0386C61.5032 49.1693 61.4133 49.3138 61.4532 49.4175Z" fill="#E3A358"/><path d="M51.4878 48.2531C51.6983 48.4086 51.9483 48.4773 52.1433 48.4334C52.3383 48.3896 52.4491 48.2398 52.4331 48.0403C52.4176 47.8413 52.2784 47.6224 52.0679 47.4668C51.8574 47.3113 51.6075 47.2426 51.4125 47.2865C51.2175 47.3303 51.1067 47.4801 51.1226 47.6796C51.1377 47.8794 51.2773 48.0979 51.4878 48.2531Z" fill="#E3A358"/><path d="M57.7077 51.2325C57.7329 51.4146 57.9798 51.5307 58.259 51.4922C58.5386 51.4536 58.7443 51.2746 58.719 51.0924C58.6937 50.9103 58.4469 50.7937 58.1677 50.8327C57.888 50.8713 57.6824 51.0503 57.7077 51.2325Z" fill="#E3A358"/></g></g></svg>