<?xml version="1.0" encoding="utf-8"?>
<svg xmlns="http://www.w3.org/2000/svg" viewBox="169.9143 221.7038 66.1955 96.3515" width="66.1955px" height="96.3515px"><defs><filter id="filter0_d_1_14580" x="-0.000219345" y="0.000414848" width="110.326" height="140.482" filterUnits="userSpaceOnUse" color-interpolation-filters="sRGB"><feFlood flood-opacity="0" result="BackgroundImageFix"/><feColorMatrix in="SourceAlpha" type="matrix" values="0 0 0 0 0 0 0 0 0 0 0 0 0 0 0 0 0 0 127 0" result="hardAlpha"/><feOffset dy="14.7101"/><feGaussianBlur stdDeviation="11.0326"/><feColorMatrix type="matrix" values="0 0 0 0 0.529412 0 0 0 0 0.490196 0 0 0 0 0.784314 0 0 0 0.25 0"/><feBlend mode="normal" in2="BackgroundImageFix" result="effect1_dropShadow_1_14580"/><feBlend mode="normal" in="SourceGraphic" in2="effect1_dropShadow_1_14580" result="shape"/></filter><clipPath id="clip0_1_14580"><rect width="22.0652" height="41.1883" fill="white" transform="translate(43.395 19.124)"/></clipPath></defs><g id="object-0" transform="matrix(1, 0, 0, 1, -93.37349700927734, 140.96385192871094)"><g opacity="0.35" filter="url(#filter0_d_1_14580)" transform="matrix(1, 0, 0, 1, 241.222885, 73.38443)"><path d="M22.0649 36.7756C22.0649 22.9068 22.0649 15.9725 26.3734 11.664C30.6819 7.35547 37.6163 7.35547 51.4852 7.35547H58.8402C72.709 7.35547 79.6434 7.35547 83.9519 11.664C88.2604 15.9725 88.2604 22.9069 88.2604 36.7757V74.2865C88.2604 88.1553 88.2604 95.0897 83.9519 99.3982C79.6434 103.707 72.709 103.707 58.8402 103.707H51.4852C37.6163 103.707 30.6819 103.707 26.3734 99.3982C22.0649 95.0897 22.0649 88.1553 22.0649 74.2865V36.7756Z" fill="#5A85FF"/></g><path d="M 289.164 153.227 L 289.164 161.406 L 287.822 161.406 L 287.822 153.227 L 289.164 153.227 Z M 290.478 158.158 C 290.478 157.491 290.611 156.907 290.878 156.404 C 291.152 155.895 291.529 155.502 292.008 155.228 C 292.486 154.953 293.035 154.816 293.655 154.816 C 294.44 154.816 295.087 155.004 295.597 155.381 C 296.115 155.749 296.464 156.279 296.644 156.969 L 295.197 156.969 C 295.079 156.648 294.891 156.397 294.632 156.216 C 294.373 156.036 294.047 155.946 293.655 155.946 C 293.106 155.946 292.667 156.142 292.337 156.534 C 292.015 156.918 291.855 157.46 291.855 158.158 C 291.855 158.856 292.015 159.401 292.337 159.794 C 292.667 160.186 293.106 160.382 293.655 160.382 C 294.432 160.382 294.946 160.041 295.197 159.358 L 296.644 159.358 C 296.456 160.017 296.103 160.543 295.585 160.935 C 295.067 161.32 294.424 161.512 293.655 161.512 C 293.035 161.512 292.486 161.375 292.008 161.1 C 291.529 160.818 291.152 160.425 290.878 159.923 C 290.611 159.413 290.478 158.825 290.478 158.158 Z M 303.924 158.005 C 303.924 158.248 303.908 158.468 303.877 158.664 L 298.923 158.664 C 298.962 159.182 299.154 159.598 299.499 159.911 C 299.844 160.225 300.268 160.382 300.77 160.382 C 301.492 160.382 302.002 160.08 302.3 159.476 L 303.747 159.476 C 303.551 160.072 303.194 160.563 302.677 160.947 C 302.167 161.324 301.531 161.512 300.77 161.512 C 300.15 161.512 299.593 161.375 299.099 161.1 C 298.613 160.818 298.228 160.425 297.946 159.923 C 297.671 159.413 297.534 158.825 297.534 158.158 C 297.534 157.491 297.667 156.907 297.934 156.404 C 298.209 155.895 298.589 155.502 299.076 155.228 C 299.57 154.953 300.135 154.816 300.77 154.816 C 301.382 154.816 301.927 154.949 302.406 155.216 C 302.884 155.483 303.257 155.859 303.524 156.346 C 303.791 156.824 303.924 157.377 303.924 158.005 Z M 302.524 157.581 C 302.516 157.087 302.339 156.691 301.994 156.393 C 301.649 156.095 301.221 155.946 300.711 155.946 C 300.248 155.946 299.852 156.095 299.523 156.393 C 299.193 156.683 298.997 157.079 298.934 157.581 L 302.524 157.581 Z" fill="#002073" style="stroke-width: 1;"/><g clip-path="url(#clip0_1_14580)" transform="matrix(1, 0, 0, 1, 241.222885, 73.38443)"><path d="M48.0929 35.528C48.0929 35.528 45.4168 30.7154 51.5064 27.804C57.5965 24.8927 56.3968 21.9111 56.3509 20.0801C56.3509 20.0801 61.4717 21.8643 61.4717 27.1936C61.4717 33.3678 48.0929 35.528 48.0929 35.528Z" fill="white"/><path d="M57.6886 22.0996C57.6886 22.0996 59.0264 26.9829 56.4199 28.7903C53.8134 30.5982 50.0531 31.1379 48.6694 33.2746C48.6694 33.2746 50.6302 34.2842 53.7443 33.486C56.8584 32.6877 61.4716 27.9454 61.4716 27.9454C61.4716 27.9454 63.4556 20.3856 57.6886 22.0996Z" fill="#5A85FF"/><path d="M57.7348 22.2397C57.7348 22.2397 60.18 25.3623 59.6033 27.4514C59.0267 29.5409 56.4201 30.9025 56.028 30.9964C55.6358 31.0902 50.0075 32.3112 48.6924 33.2736C48.6924 33.2736 54.8742 33.2265 56.6046 32.264C58.3578 31.3016 62.1176 28.7658 61.2642 26.747C60.4108 24.7283 59.6265 21.23 57.7348 22.2397Z" fill="#507BE1"/><path d="M48.3085 36.5259C48.2171 36.5068 48.1565 36.5068 48.0928 36.5068C47.7465 36.5068 47.4284 36.3204 47.2626 36.0201C47.0603 35.6251 46.1039 33.5778 46.8205 31.3064C47.4016 29.4858 48.8499 28.01 51.124 26.921C55.8406 24.6905 55.6499 22.6921 55.4814 20.9292C55.4583 20.6244 55.4351 20.3649 55.4119 20.1055C55.4128 19.8075 55.559 19.5023 55.8041 19.3104C55.9676 19.1921 56.1713 19.124 56.3714 19.124C56.4788 19.124 56.5835 19.1431 56.6824 19.1807C57.6699 19.5631 62.4561 21.6979 62.4561 27.2408C62.4561 34.0685 49.337 36.3571 48.3085 36.5259ZM57.4507 22.1832C57.3723 24.0351 56.6753 26.4475 51.9368 28.688C50.1628 29.5421 49.0576 30.6174 48.6507 31.8851C48.3758 32.775 48.4836 33.6363 48.6227 34.2028L48.6779 34.4277L48.9012 34.3819C50.0897 34.137 60.5109 31.8552 60.5109 27.195C60.5109 24.5485 59.0527 22.9084 57.8295 21.9982L57.4698 21.7306L57.4507 22.1832Z" fill="#4C2F1B"/><path d="M45.7164 42.2423C45.7164 42.2423 42.6945 37.0301 49.1535 34.4481C55.2895 31.983 56.7195 34.4009 61.1255 28.79C61.7485 29.9402 63.9856 33.1332 60.872 37.1476C59.5105 38.9088 48.9227 42.3362 45.7164 42.2423Z" fill="white"/><path d="M60.8951 30.3398C60.8951 30.3398 61.8643 35.1293 53.3754 35.8101C47.7007 36.2564 45.6245 40.7171 45.6245 40.7171L58.7034 38.3926L62.4864 34.6127L60.8951 30.3398Z" fill="#FF5C68"/><path d="M51.5527 59.3338C50.976 59.3338 50.4685 58.9111 50.3762 58.3242L49.0843 50.5064C49.0153 50.1544 49.1307 49.7789 49.3615 49.5204C49.5919 49.2387 49.915 49.0977 50.284 49.0977H58.1962C58.542 49.0977 58.8883 49.2618 59.1187 49.5204C59.3495 49.8025 59.4418 50.1544 59.3959 50.5064L58.104 58.3242C58.0117 58.9111 57.5042 59.3338 56.9275 59.3338H51.5527Z" fill="#FFCD8A"/><path d="M51.5527 60.3118C50.4974 60.3118 49.5772 59.5212 49.4123 58.4735L48.1199 50.6534C48.0148 49.9894 48.1881 49.334 48.5954 48.8574C49.0219 48.3585 49.6289 48.0723 50.2608 48.0723H58.173C58.8054 48.0723 59.4123 48.3585 59.8383 48.8574C60.2448 49.354 60.4195 50.0098 60.3138 50.6539L59.0219 58.4713C58.8334 59.5362 57.9328 60.3113 56.8811 60.3113H51.5527V60.3118ZM51.3508 58.3316H57.0825L58.4547 50.0289H49.9787L51.3508 58.3316Z" fill="#4C2F1B"/><path d="M60.5057 52.4595L54.3007 52.8047H54.1554L47.9504 52.4591C47.3443 52.4346 46.8109 51.9656 46.7142 51.3488L45.6723 45.7987C45.527 44.9601 46.1571 44.1709 46.9811 44.1709H61.4754C62.3239 44.1709 62.954 44.9601 62.7842 45.7987L61.7423 51.3492C61.6207 51.9661 61.1117 52.4101 60.5057 52.4595Z" fill="#FFCD8A"/><path d="M44.5635 47.4335L45.1245 46.6298L55.0337 53.7972L54.4726 54.6009L44.5635 47.4335ZM47.8162 46.7255L48.3772 45.9218L58.2859 53.0892L57.7249 53.8929L47.8162 46.7255ZM51.535 46.1245L52.0965 45.3208L62.0052 52.4883L61.4441 53.292L51.535 46.1245ZM54.1165 44.5498L54.6776 43.7461L63.2703 49.9616L62.7088 50.7652L54.1165 44.5498Z" fill="#FFBB71"/><path d="M52.8119 53.8108L62.7219 46.6447L63.2829 47.4489L53.3729 54.615L52.8119 53.8108ZM49.5708 53.0793L61.8311 44.2132L62.3921 45.0174L50.1318 53.883L49.5708 53.0793ZM45.8163 52.4942L55.7259 45.3281L56.2869 46.1318L46.3773 53.2979L45.8163 52.4942ZM44.5649 49.9733L53.1586 43.7588L53.7196 44.5629L45.126 50.7775L44.5649 49.9733Z" fill="#FFBB71"/><path d="M53.9985 54.7717L48.1063 54.4438C46.5314 54.378 45.2195 53.2128 44.9133 51.6109L43.9218 46.3293C43.7293 45.3288 43.9976 44.2802 44.6571 43.4524C45.3314 42.6333 46.2739 42.1807 47.3091 42.1807H61.1269C62.1518 42.1807 63.1157 42.6537 63.7044 43.4461C64.3751 44.2389 64.6412 45.2857 64.4446 46.3293L63.4526 51.6118C63.151 53.1911 61.8381 54.3558 60.2597 54.4438L54.3608 54.7717H53.9985ZM47.3318 44.1368C46.8942 44.1368 46.4789 44.3364 46.1914 44.6852C45.896 45.0439 45.7721 45.5124 45.8514 45.971L46.8443 51.2562C46.9517 51.9397 47.5546 52.4817 48.2454 52.5098L54.1469 52.8382L54.2984 52.8387L60.2169 52.5094C60.9081 52.4531 61.4803 51.9388 61.614 51.258L62.6059 45.9742C62.6969 45.5256 62.5846 45.0607 62.2976 44.7024C62.0097 44.3432 61.5828 44.1368 61.1264 44.1368H47.3318Z" fill="#4C2F1B"/><path d="M60.9183 30.9971C60.9183 30.9971 61.4491 34.4481 59.2347 36.0446C56.5128 38.4394 48.7159 38.1577 46.7783 39.6835C46.7783 39.6835 59.0039 39.942 60.4339 36.373C61.8639 32.8045 62.3252 31.1613 60.9183 30.9971Z" fill="#F93D53"/><path d="M45.6936 43.245C45.371 43.245 45.0746 43.064 44.8808 42.7483C44.8581 42.7139 43.4565 40.2651 44.3273 37.6731C44.9245 35.872 46.4222 34.4842 48.7788 33.5476C51.1299 32.6183 52.8652 32.3865 54.2592 32.2001C56.6429 31.8881 57.9539 31.7162 60.527 28.4488C60.7057 28.2175 60.9678 28.0859 61.2472 28.0859C61.2819 28.0859 61.3167 28.0878 61.351 28.0923C61.683 28.1127 61.9691 28.3045 62.1117 28.5939C62.146 28.6497 62.1661 28.686 62.1861 28.7218C62.2124 28.7685 62.2391 28.8148 62.265 28.8552C62.9932 30.1138 64.9459 33.4868 61.6304 37.7738C59.9432 39.9486 49.166 43.2454 45.809 43.2454H45.6936V43.245ZM60.8612 31.0413C58.4259 33.6356 56.6161 33.8683 54.5216 34.1377C53.039 34.3168 51.5363 34.5463 49.4811 35.3736C47.6776 36.0834 46.5519 37.073 46.137 38.3149C45.8558 39.1158 45.8861 40.0538 46.2288 41.0992L46.2885 41.282L46.477 41.2643C50.1834 40.9151 59.089 37.8459 60.0899 36.5728C62.0052 34.0773 61.6736 32.2686 61.2574 31.1247L61.1251 30.761L60.8612 31.0413Z" fill="#4C2F1B"/><path d="M62.0712 35.3164C62.0712 35.3164 60.6871 38.4622 55.2664 39.5657C50.9067 40.4343 44.3786 39.871 44.3555 44.1439C44.3555 48.2054 60.9638 47.501 63.0169 43.8386C65.9928 38.5094 62.0712 35.3164 62.0712 35.3164Z" fill="white"/><path d="M45.4863 44.1677C48.0928 41.7262 54.9668 43.2288 57.3888 42.3362C60.6642 41.1153 62.0715 40.7161 62.3483 37.0537C62.3483 37.0537 66.5466 42.0074 61.1718 45.341C58.0577 47.2196 47.3544 48.5576 45.4863 44.1677Z" fill="#FFF383"/><path d="M62.3942 37.0312C62.3942 37.0312 67.1233 46.915 46.7778 45.1076C46.801 45.1072 69.3608 49.2154 62.3942 37.0312Z" fill="#F6E259"/><path d="M51.5996 47.7752C49.264 47.7752 47.3224 47.5121 45.9837 47.0151C44.2885 46.4227 43.395 45.4304 43.395 44.1441C43.395 40.0113 48.0274 39.4757 51.7493 39.0448L51.8567 39.0321C53.1531 38.9006 54.2021 38.7536 55.0586 38.5831C59.6273 37.6579 61.4285 35.1488 61.5836 34.7488L61.5636 34.8263C61.7093 34.5674 61.9472 34.3923 62.2338 34.3338C62.2855 34.3229 62.3385 34.3184 62.3911 34.3184C62.6108 34.3184 62.8421 34.4077 63.0261 34.5642C64.7565 36.0772 67.1344 40.0916 63.7307 44.4389C62.0814 46.6069 56.2502 47.7752 51.5996 47.7752ZM62.2939 37.0483C61.1402 38.2466 59.0172 39.8222 55.4526 40.5252C54.3755 40.7393 53.1446 40.8812 52.0827 40.9915C48.0091 41.4518 45.3402 41.9199 45.3402 44.1436C45.3402 44.6067 46.1624 44.9709 46.6526 45.1473C47.8429 45.5728 49.5172 45.7977 51.4949 45.7977C55.6451 45.7977 61.0956 44.7369 62.2815 43.2143C64.3715 40.5116 63.4161 38.2116 62.6607 37.0814L62.4972 36.8365L62.2939 37.0483Z" fill="#4C2F1B"/></g></g></svg>