<?xml version="1.0" encoding="utf-8"?>
<svg xmlns="http://www.w3.org/2000/svg" viewBox="200.0348 52.4266 66.1955 96.3515" width="66.1955px" height="96.3515px"><defs><filter id="filter0_d_1_14642" x="-0.000219345" y="0.000414848" width="110.326" height="140.482" filterUnits="userSpaceOnUse" color-interpolation-filters="sRGB"><feFlood flood-opacity="0" result="BackgroundImageFix"/><feColorMatrix in="SourceAlpha" type="matrix" values="0 0 0 0 0 0 0 0 0 0 0 0 0 0 0 0 0 0 127 0" result="hardAlpha"/><feOffset dy="14.7101"/><feGaussianBlur stdDeviation="11.0326"/><feColorMatrix type="matrix" values="0 0 0 0 0.529412 0 0 0 0 0.490196 0 0 0 0 0.784314 0 0 0 0.25 0"/><feBlend mode="normal" in2="BackgroundImageFix" result="effect1_dropShadow_1_14642"/><feBlend mode="normal" in="SourceGraphic" in2="effect1_dropShadow_1_14642" result="shape"/></filter><clipPath id="clip0_1_14642"><rect width="34.5688" height="34.5688" fill="white" transform="translate(37.5112 23.5361)"/></clipPath></defs><g transform="matrix(1, 0, 0, 1, 5.421687126159668, -46.38554763793945)" id="object-0"><g opacity="0.35" filter="url(#filter0_d_1_14642)" transform="matrix(1, 0, 0, 1, 172.548203, 91.456718)"><path d="M22.0649 36.7757C22.0649 22.9069 22.0649 15.9725 26.3734 11.664C30.6819 7.35547 37.6163 7.35547 51.4852 7.35547H58.8402C72.709 7.35547 79.6435 7.35547 83.9519 11.664C88.2604 15.9725 88.2604 22.9069 88.2604 36.7757V74.2864C88.2604 88.1553 88.2604 95.0897 83.9519 99.3982C79.6435 103.707 72.709 103.707 58.8402 103.707H51.4852C37.6163 103.707 30.6819 103.707 26.3734 99.3982C22.0649 95.0897 22.0649 88.1553 22.0649 74.2865V36.7757Z" fill="#FFDE8A"/></g><path d="M 218.999 173.736 C 218.999 174.152 218.901 174.544 218.705 174.913 C 218.509 175.282 218.195 175.584 217.764 175.819 C 217.332 176.047 216.779 176.16 216.105 176.16 L 214.622 176.16 L 214.622 179.479 L 213.28 179.479 L 213.28 171.3 L 216.105 171.3 C 216.732 171.3 217.262 171.41 217.693 171.63 C 218.133 171.841 218.458 172.132 218.67 172.5 C 218.89 172.869 218.999 173.281 218.999 173.736 Z M 216.105 175.066 C 216.614 175.066 216.995 174.952 217.246 174.725 C 217.497 174.489 217.623 174.16 217.623 173.736 C 217.623 172.842 217.117 172.395 216.105 172.395 L 214.622 172.395 L 214.622 175.066 L 216.105 175.066 Z M 220.962 172.136 C 220.718 172.136 220.514 172.053 220.35 171.889 C 220.185 171.724 220.102 171.52 220.102 171.277 C 220.102 171.033 220.185 170.829 220.35 170.665 C 220.514 170.5 220.718 170.418 220.962 170.418 C 221.197 170.418 221.397 170.5 221.562 170.665 C 221.726 170.829 221.809 171.033 221.809 171.277 C 221.809 171.52 221.726 171.724 221.562 171.889 C 221.397 172.053 221.197 172.136 220.962 172.136 Z M 221.621 172.995 L 221.621 179.479 L 220.279 179.479 L 220.279 172.995 L 221.621 172.995 Z M 224.57 178.385 L 227.513 178.385 L 227.513 179.479 L 223.017 179.479 L 223.017 178.385 L 225.971 174.089 L 223.017 174.089 L 223.017 172.995 L 227.513 172.995 L 227.513 174.089 L 224.57 178.385 Z M 230.11 178.385 L 233.052 178.385 L 233.052 179.479 L 228.556 179.479 L 228.556 178.385 L 231.51 174.089 L 228.556 174.089 L 228.556 172.995 L 233.052 172.995 L 233.052 174.089 L 230.11 178.385 Z M 234.013 176.207 C 234.013 175.556 234.147 174.98 234.413 174.477 C 234.688 173.975 235.057 173.587 235.52 173.312 C 235.99 173.03 236.508 172.889 237.073 172.889 C 237.583 172.889 238.026 172.991 238.403 173.195 C 238.787 173.391 239.093 173.638 239.321 173.936 L 239.321 172.995 L 240.674 172.995 L 240.674 179.479 L 239.321 179.479 L 239.321 178.514 C 239.093 178.82 238.783 179.075 238.391 179.279 C 237.999 179.483 237.552 179.585 237.049 179.585 C 236.492 179.585 235.982 179.444 235.52 179.161 C 235.057 178.871 234.688 178.471 234.413 177.961 C 234.147 177.443 234.013 176.859 234.013 176.207 Z M 239.321 176.231 C 239.321 175.784 239.227 175.395 239.038 175.066 C 238.858 174.736 238.619 174.485 238.32 174.313 C 238.022 174.14 237.701 174.054 237.355 174.054 C 237.01 174.054 236.689 174.14 236.39 174.313 C 236.092 174.477 235.849 174.725 235.661 175.054 C 235.48 175.376 235.39 175.76 235.39 176.207 C 235.39 176.655 235.48 177.047 235.661 177.384 C 235.849 177.722 236.092 177.98 236.39 178.161 C 236.696 178.334 237.018 178.42 237.355 178.42 C 237.701 178.42 238.022 178.334 238.32 178.161 C 238.619 177.988 238.858 177.737 239.038 177.408 C 239.227 177.07 239.321 176.678 239.321 176.231 Z" fill="#D69900" style="stroke-width: 1;"/><g clip-path="url(#clip0_1_14642)" transform="matrix(1, 0, 0, 1, 172.548203, 91.456718)"><path d="M38.4619 43.9355V47.8131H69.1928C70.0567 47.8131 70.7158 43.8672 70.7158 43.8672L38.4619 43.9355Z" fill="#F2C05A"/><path d="M38.4616 48.7618C37.929 48.7618 37.5112 48.3451 37.5112 47.8133V43.9354C37.5112 43.4126 37.9375 42.9873 38.4616 42.9873L70.7384 42.9189C71.0066 42.9189 71.2842 43.046 71.4454 43.2425C71.6307 43.4643 71.702 43.7338 71.6478 44.0034C70.8602 48.7618 69.6654 48.7618 69.2158 48.7618H38.4616ZM68.9269 46.8877L68.9907 46.76C69.1348 46.4725 69.301 45.9625 69.5299 45.1061L69.6078 44.8152L39.4349 44.8843V46.8877H39.6661H68.9269Z" fill="#4C2F1B"/><path d="M62.4419 24.7507C61.7828 24.4104 60.9644 24.5013 60.419 25.0004L38.4844 43.9359H42.5761V54.8437C42.5761 56.1364 43.6214 57.1793 44.9171 57.1793C46.2127 57.1793 47.2581 56.1364 47.2581 54.8437V43.9359H49.6901V49.0836C49.6901 50.3987 50.781 51.4875 52.0996 51.4875C53.4179 51.4875 54.5091 50.3991 54.5091 49.0836V43.9359H57.9869C58.3279 45.2286 59.4873 46.181 60.8737 46.181C62.2604 46.181 63.442 45.2286 63.7605 43.9359L70.7612 43.9134C72.9655 31.3727 65.4194 26.2476 62.4419 24.7507Z" fill="#FFDE8A"/><path d="M55.2136 33.0048C56.5545 33.0048 57.6231 31.939 57.6231 30.6009C57.6231 29.671 57.1003 28.9 56.3501 28.4922L52.9634 31.4173C53.3044 32.3472 54.1679 33.0048 55.2136 33.0048Z" fill="#FF5C5C"/><path d="M55.2137 33.4809C54.0088 33.4809 52.9179 32.7099 52.5087 31.5761C52.4406 31.3947 52.4858 31.1908 52.645 31.0548L56.0317 28.1293C56.1679 27.9934 56.3953 27.9704 56.5541 28.0613C57.5088 28.5604 58.0772 29.5354 58.0772 30.5786C58.1005 32.1882 56.8049 33.4809 55.2137 33.4809ZM53.5315 31.5535C53.8725 32.1661 54.5091 32.5514 55.2137 32.5514C56.282 32.5514 57.1459 31.6899 57.1459 30.6237C57.1459 30.0115 56.8504 29.4445 56.3727 29.0817L53.5315 31.5535Z" fill="#4C2F1B"/><path d="M63.1919 35.0686C62.919 36.2253 63.6692 37.4045 64.8282 37.6538C65.6465 37.8352 66.4419 37.5404 66.9422 36.9508L65.033 33.3906C64.1465 33.504 63.3963 34.1387 63.1919 35.0686Z" fill="#FF5C5C"/><path d="M65.3057 38.1761C65.1239 38.1761 64.9195 38.1536 64.7377 38.1081C63.3283 37.7908 62.4193 36.3847 62.7373 34.9562C62.9873 33.8903 63.8738 33.0739 64.9876 32.938C65.1694 32.9154 65.3742 33.0059 65.4649 33.1873L67.3741 36.725C67.4652 36.9064 67.4423 37.1103 67.306 37.2466C66.7831 37.8358 66.0559 38.1761 65.3057 38.1761ZM63.6464 35.1601C63.5553 35.6137 63.6238 36.067 63.8734 36.4298C64.1237 36.8151 64.4873 37.0874 64.9417 37.1783C65.4419 37.2917 65.9644 37.1557 66.3736 36.838L64.8054 33.9129C64.2148 34.1168 63.7827 34.5701 63.6464 35.1601Z" fill="#4C2F1B"/><path d="M44.894 58.105C43.079 58.105 41.6019 56.6318 41.6019 54.8206V44.8613H38.4613C38.0564 44.8613 37.7142 44.6209 37.5896 44.2484C37.4401 43.8736 37.5499 43.4603 37.8582 43.2067L59.7971 24.2677C60.3056 23.835 60.9503 23.5957 61.6117 23.5957C62.0474 23.5957 62.4675 23.6951 62.8607 23.8917C65.5244 25.2313 74.0333 30.6419 71.6694 44.0091C71.5974 44.4578 71.1971 44.7933 70.7377 44.7933L64.3911 44.8166L64.3268 44.9409C63.6498 46.2487 62.3176 47.0613 60.8502 47.0613C59.3833 47.0613 58.051 46.2491 57.3736 44.9409L57.3086 44.8159H55.4364V49.0154C55.4364 50.8514 53.9394 52.3449 52.0991 52.3449C50.2588 52.3449 48.7623 50.8514 48.7623 49.0158V44.8163H48.2083V54.7756C48.1873 56.6104 46.7004 58.105 44.894 58.105ZM61.5884 25.4939C61.3742 25.4939 61.1761 25.5692 61.0149 25.7122L40.9997 42.9876H42.5527C42.8162 42.9876 43.0459 43.0812 43.1989 43.2513C43.3862 43.4386 43.4804 43.6724 43.4804 43.9361V54.8439C43.4804 55.6215 44.1146 56.2542 44.8936 56.2542C45.6863 56.2542 46.3068 55.6347 46.3068 54.8439V43.9357C46.3068 43.4129 46.7332 42.9876 47.2572 42.9876H49.6892C49.9524 42.9876 50.1821 43.0812 50.3355 43.2513C50.5228 43.4386 50.617 43.6724 50.617 43.9361V49.0837C50.617 49.8862 51.2714 50.5391 52.0758 50.5391C52.8801 50.5391 53.5345 49.8862 53.5345 49.0837V43.9132C53.5345 43.39 53.9608 42.9647 54.4849 42.9647H57.9627C58.3971 42.9647 58.7639 43.251 58.8752 43.6767C59.1076 44.5793 59.9198 45.2101 60.8494 45.2101C61.7791 45.2101 62.5913 44.5793 62.8237 43.6763C62.935 43.2513 63.3018 42.9651 63.7359 42.9651L69.9381 42.9418L69.9657 42.7437C71.514 31.6856 64.9116 27.0627 62.0011 25.5883C61.8601 25.5242 61.7242 25.4939 61.5884 25.4939Z" fill="#4C2F1B"/><path d="M70.7381 43.8669C73.0113 31.0998 65.1011 26.0427 62.2599 24.6595C61.6915 24.3872 61.0094 24.4781 60.5321 24.8863L58.8047 26.3833C62.578 29.195 68.9196 34.3885 66.9874 43.8902L70.7381 43.8669Z" fill="#FFB07B"/><path d="M66.9881 44.8161C66.712 44.8161 66.4383 44.686 66.2569 44.4681C66.0759 44.2517 66.0007 43.9597 66.0556 43.6858C67.7196 35.4787 63.0264 30.7101 58.2163 27.1282C57.989 26.9709 57.8511 26.7044 57.8313 26.3917C57.8138 26.1098 57.9325 25.8406 58.1575 25.6538L59.8884 24.1537C60.3506 23.7556 60.9349 23.5361 61.5337 23.5361C61.9145 23.5361 62.294 23.6274 62.6324 23.7999C65.3529 25.1236 74.0293 30.4883 71.6244 44.0315C71.5524 44.4805 71.1522 44.8161 70.6932 44.8161H66.9881ZM61.5469 25.4343C61.39 25.4343 61.2359 25.491 61.1117 25.5943L60.2856 26.3265L60.5036 26.497C62.6838 28.2052 69.3185 33.4038 68.1221 42.6589L68.0887 42.9191H69.9173L69.9449 42.7202C71.5221 31.4512 64.7845 26.9204 61.8148 25.4953C61.7358 25.4561 61.6423 25.4343 61.5469 25.4343Z" fill="#4C2F1B"/><path d="M66.9879 43.8672C66.9879 43.8672 66.7831 46.3616 65.874 47.8131H69.2152C69.2152 47.8131 70.3971 47.178 70.7382 43.8672H66.9879Z" fill="#E2803D"/><path d="M65.8739 48.7614C65.5239 48.7614 65.2183 48.5784 65.0556 48.272C64.8854 47.9694 64.8921 47.6078 65.07 47.3231C65.7244 46.2596 65.9938 44.3715 66.0366 43.7936C66.0721 43.3154 66.4801 42.9414 66.9652 42.9414H70.7155C70.9938 42.9414 71.243 43.0509 71.4003 43.2424C71.5984 43.4603 71.6806 43.7097 71.6452 43.9726C71.2597 47.6167 69.8987 48.5101 69.6297 48.6522C69.5207 48.7233 69.3661 48.7614 69.215 48.7614H65.8739ZM67.8061 45.0012C67.7162 45.4502 67.604 46.0091 67.4257 46.5886L67.3339 46.8873H68.8584L68.9277 46.7886C69.0842 46.5653 69.3801 46.0487 69.6001 45.0983L69.6655 44.8155H67.8435L67.8061 45.0012Z" fill="#4C2F1B"/><path d="M48.9399 39.128C48.9399 39.9922 49.6419 40.6925 50.5081 40.6925C51.3743 40.6925 52.0763 39.9922 52.0763 39.128C52.0763 38.2638 51.3743 37.5635 50.5081 37.5635C49.6419 37.5635 48.9399 38.2638 48.9399 39.128Z" fill="#FF5C5C"/><path d="M50.5083 41.1687C49.3944 41.1687 48.4624 40.2618 48.4624 39.128C48.4624 37.9942 49.3715 37.0869 50.5083 37.0869C51.6447 37.0869 52.5538 37.9939 52.5538 39.128C52.5538 40.2614 51.6447 41.1687 50.5083 41.1687ZM50.5083 38.0393C49.8947 38.0393 49.4174 38.5384 49.4174 39.1276C49.4174 39.7172 49.9173 40.216 50.5083 40.216C51.0993 40.216 51.5991 39.7169 51.5991 39.1276C51.5991 38.538 51.1218 38.0393 50.5083 38.0393Z" fill="#4C2F1B"/><path d="M58.2366 40.6926H54.9407C54.7588 40.6926 54.5996 40.5338 54.5996 40.3524V39.6039C54.5996 39.4225 54.7588 39.2637 54.9407 39.2637H58.2366C58.4184 39.2637 58.5777 39.4225 58.5777 39.6039V40.3524C58.6002 40.5338 58.441 40.6926 58.2366 40.6926Z" fill="#3DE25C"/><path d="M57.8732 41.169H55.3275C54.6684 41.169 54.1455 40.6474 54.1455 39.9898C54.1455 39.3322 54.6684 38.8105 55.3275 38.8105H57.8732C58.5323 38.8105 59.0552 39.3322 59.0552 39.9898C59.0552 40.6474 58.5323 41.169 57.8732 41.169ZM55.3275 39.74C55.1912 39.74 55.0775 39.8534 55.0775 39.9894C55.0775 40.1257 55.1912 40.2391 55.3275 40.2391H57.8732C58.0095 40.2391 58.1232 40.1257 58.1232 39.9894C58.1232 39.8534 58.0095 39.74 57.8732 39.74H55.3275Z" fill="#4C2F1B"/><path d="M60.5095 37.2686L58.7591 35.3638C58.691 35.2958 58.691 35.1824 58.7591 35.1144L59.5545 34.3889C59.6226 34.3209 59.7363 34.3209 59.8048 34.3889L61.5552 36.2936C61.6233 36.3616 61.6233 36.475 61.5552 36.543L60.7598 37.2686C60.7139 37.3369 60.5776 37.3369 60.5095 37.2686Z" fill="#3DE25C"/><path d="M60.6692 37.7215H60.6241C60.3967 37.7215 60.1919 37.6081 60.0331 37.4493L58.533 35.8393C58.3738 35.6804 58.3057 35.454 58.3057 35.2271C58.3057 35.0007 58.4193 34.7964 58.5786 34.6375L59.0785 34.1839C59.2377 34.025 59.4651 33.957 59.6924 33.957C59.9198 33.957 60.1242 34.0704 60.2834 34.2293L61.7834 35.8393C61.9427 35.9981 62.0108 36.225 62.0108 36.4518C62.0108 36.6786 61.8971 36.8826 61.7379 37.0414L61.238 37.4951C61.0784 37.6306 60.8736 37.7215 60.6692 37.7215ZM59.3054 35.2497L60.6692 36.7237L61.0328 36.3834L59.6691 34.9094L59.3054 35.2497Z" fill="#4C2F1B"/></g></g></svg>