<svg width="303" height="58" viewBox="0 0 303 58" fill="none" xmlns="http://www.w3.org/2000/svg">
<path d="M10.1464 44.193C10.1464 44.545 10.0584 44.876 9.88237 45.1858C9.71338 45.4956 9.4599 45.7561 9.12193 45.9673C8.791 46.1786 8.3967 46.3053 7.93903 46.3475V47.203H7.25252V46.3475C6.59066 46.2842 6.05553 46.0765 5.64715 45.7244C5.23877 45.3724 5.03458 44.9076 5.03458 44.3303H6.3231C6.34422 44.6049 6.43223 44.8337 6.58714 45.0168C6.74204 45.1928 6.96384 45.3055 7.25252 45.3548V43.0312C6.78077 42.9115 6.39703 42.7918 6.1013 42.6721C5.80558 42.5454 5.5521 42.3482 5.34086 42.0806C5.13667 41.8131 5.03458 41.447 5.03458 40.9822C5.03458 40.3978 5.23877 39.9155 5.64715 39.5353C6.05553 39.148 6.59066 38.9227 7.25252 38.8594V38.0039H7.93903V38.8594C8.55864 38.9157 9.05504 39.1128 9.42822 39.4508C9.80843 39.7817 10.0232 40.2394 10.0725 40.8238H8.78396C8.76283 40.6055 8.67834 40.4119 8.53048 40.2429C8.38261 40.0669 8.18546 39.9472 7.93903 39.8838V42.1651C8.41078 42.2778 8.79452 42.3975 9.09024 42.5242C9.38597 42.6439 9.63593 42.8376 9.84012 43.1051C10.0443 43.3656 10.1464 43.7283 10.1464 44.193ZM6.25973 40.9189C6.25973 41.2076 6.34422 41.4329 6.51321 41.5948C6.68923 41.7568 6.93567 41.887 7.25252 41.9856V39.8521C6.94975 39.8874 6.70684 39.9965 6.52377 40.1796C6.34774 40.3626 6.25973 40.6091 6.25973 40.9189ZM7.93903 45.3548C8.24883 45.3055 8.49175 45.1822 8.66778 44.9851C8.84381 44.7809 8.93182 44.538 8.93182 44.2563C8.93182 43.9747 8.84381 43.7564 8.66778 43.6015C8.49879 43.4396 8.25587 43.3093 7.93903 43.2107V45.3548ZM11.9038 42.3341C11.9038 41.116 12.108 40.1655 12.5163 39.4825C12.9318 38.7925 13.6429 38.4474 14.6498 38.4474C15.6567 38.4474 16.3643 38.7925 16.7727 39.4825C17.1881 40.1655 17.3958 41.116 17.3958 42.3341C17.3958 43.5663 17.1881 44.5309 16.7727 45.228C16.3643 45.918 15.6567 46.2631 14.6498 46.2631C13.6429 46.2631 12.9318 45.918 12.5163 45.228C12.108 44.5309 11.9038 43.5663 11.9038 42.3341ZM16.2129 42.3341C16.2129 41.7638 16.1742 41.2815 16.0967 40.8872C16.0263 40.4929 15.8785 40.1725 15.6531 39.9261C15.4278 39.6726 15.0934 39.5459 14.6498 39.5459C14.2062 39.5459 13.8717 39.6726 13.6464 39.9261C13.4211 40.1725 13.2697 40.4929 13.1923 40.8872C13.1219 41.2815 13.0867 41.7638 13.0867 42.3341C13.0867 42.9256 13.1219 43.422 13.1923 43.8233C13.2627 44.2247 13.4106 44.5486 13.6359 44.795C13.8682 45.0414 14.2062 45.1646 14.6498 45.1646C15.0934 45.1646 15.4278 45.0414 15.6531 44.795C15.8855 44.5486 16.0369 44.2247 16.1073 43.8233C16.1777 43.422 16.2129 42.9256 16.2129 42.3341Z" fill="#C2C3CB"/>
<path d="M55.0336 44.193C55.0336 44.545 54.9456 44.876 54.7696 45.1858C54.6006 45.4956 54.3471 45.7561 54.0091 45.9673C53.6782 46.1786 53.2839 46.3053 52.8262 46.3475V47.203H52.1397V46.3475C51.4779 46.2842 50.9427 46.0765 50.5344 45.7244C50.126 45.3724 49.9218 44.9076 49.9218 44.3303H51.2103C51.2314 44.6049 51.3194 44.8337 51.4743 45.0168C51.6292 45.1928 51.851 45.3055 52.1397 45.3548V43.0312C51.668 42.9115 51.2842 42.7918 50.9885 42.6721C50.6928 42.5454 50.4393 42.3482 50.2281 42.0806C50.0239 41.8131 49.9218 41.447 49.9218 40.9822C49.9218 40.3978 50.126 39.9155 50.5344 39.5353C50.9427 39.148 51.4779 38.9227 52.1397 38.8594V38.0039H52.8262V38.8594C53.4458 38.9157 53.9422 39.1128 54.3154 39.4508C54.6956 39.7817 54.9104 40.2394 54.9597 40.8238H53.6712C53.65 40.6055 53.5655 40.4119 53.4177 40.2429C53.2698 40.0669 53.0727 39.9472 52.8262 39.8838V42.1651C53.298 42.2778 53.6817 42.3975 53.9775 42.5242C54.2732 42.6439 54.5231 42.8376 54.7273 43.1051C54.9315 43.3656 55.0336 43.7283 55.0336 44.193ZM51.1469 40.9189C51.1469 41.2076 51.2314 41.4329 51.4004 41.5948C51.5764 41.7568 51.8229 41.887 52.1397 41.9856V39.8521C51.837 39.8874 51.594 39.9965 51.411 40.1796C51.2349 40.3626 51.1469 40.6091 51.1469 40.9189ZM52.8262 45.3548C53.136 45.3055 53.379 45.1822 53.555 44.9851C53.731 44.7809 53.819 44.538 53.819 44.2563C53.819 43.9747 53.731 43.7564 53.555 43.6015C53.386 43.4396 53.1431 43.3093 52.8262 43.2107V45.3548ZM57.4564 44.6471C58.1323 44.0627 58.6639 43.5839 59.0512 43.2107C59.4455 42.8305 59.7729 42.4362 60.0334 42.0278C60.2939 41.6195 60.4242 41.2111 60.4242 40.8027C60.4242 40.3802 60.3221 40.0493 60.1179 39.8099C59.9207 39.5705 59.6074 39.4508 59.1779 39.4508C58.7625 39.4508 58.4386 39.5846 58.2062 39.8521C57.9809 40.1127 57.8612 40.4647 57.8471 40.9083H56.6854C56.7065 40.1056 56.9459 39.493 57.4035 39.0706C57.8683 38.6411 58.4562 38.4263 59.1673 38.4263C59.9348 38.4263 60.5333 38.6376 60.9628 39.06C61.3994 39.4825 61.6176 40.0458 61.6176 40.7499C61.6176 41.2568 61.4874 41.7462 61.2269 42.218C60.9734 42.6827 60.6671 43.1016 60.308 43.4748C59.9559 43.8409 59.5053 44.2669 58.9561 44.7527L58.4808 45.1752H61.8289V46.1786H56.6959V45.3019L57.4564 44.6471ZM67.8506 39.6198H64.3124V41.7216C64.4603 41.5244 64.6786 41.3589 64.9672 41.2252C65.263 41.0914 65.5763 41.0245 65.9072 41.0245C66.4987 41.0245 66.9775 41.1512 67.3436 41.4047C67.7168 41.6582 67.9808 41.9786 68.1357 42.3658C68.2977 42.7531 68.3786 43.1615 68.3786 43.591C68.3786 44.112 68.2766 44.5767 68.0724 44.9851C67.8752 45.3864 67.576 45.7033 67.1746 45.9356C66.7803 46.168 66.2945 46.2842 65.7171 46.2842C64.9496 46.2842 64.3335 46.0941 63.8688 45.7139C63.4041 45.3336 63.126 44.8302 63.0345 44.2035H64.2068C64.2843 44.5345 64.4568 44.7985 64.7243 44.9957C64.9919 45.1858 65.3263 45.2808 65.7277 45.2808C66.2276 45.2808 66.6008 45.1294 66.8472 44.8267C67.1007 44.5239 67.2274 44.1226 67.2274 43.6226C67.2274 43.1157 67.1007 42.7284 66.8472 42.4609C66.5937 42.1863 66.2206 42.049 65.7277 42.049C65.3827 42.049 65.0905 42.137 64.8511 42.313C64.6187 42.482 64.4497 42.7143 64.3441 43.0101H63.2034V38.5636H67.8506V39.6198Z" fill="#C2C3CB"/>
<path d="M106.081 44.193C106.081 44.545 105.993 44.876 105.817 45.1858C105.648 45.4956 105.395 45.7561 105.057 45.9673C104.726 46.1786 104.332 46.3053 103.874 46.3475V47.203H103.188V46.3475C102.526 46.2842 101.991 46.0765 101.582 45.7244C101.174 45.3724 100.97 44.9076 100.97 44.3303H102.258C102.279 44.6049 102.367 44.8337 102.522 45.0168C102.677 45.1928 102.899 45.3055 103.188 45.3548V43.0312C102.716 42.9115 102.332 42.7918 102.036 42.6721C101.741 42.5454 101.487 42.3482 101.276 42.0806C101.072 41.8131 100.97 41.447 100.97 40.9822C100.97 40.3978 101.174 39.9155 101.582 39.5353C101.991 39.148 102.526 38.9227 103.188 38.8594V38.0039H103.874V38.8594C104.494 38.9157 104.99 39.1128 105.363 39.4508C105.743 39.7817 105.958 40.2394 106.008 40.8238H104.719C104.698 40.6055 104.613 40.4119 104.466 40.2429C104.318 40.0669 104.121 39.9472 103.874 39.8838V42.1651C104.346 42.2778 104.73 42.3975 105.025 42.5242C105.321 42.6439 105.571 42.8376 105.775 43.1051C105.979 43.3656 106.081 43.7283 106.081 44.193ZM102.195 40.9189C102.195 41.2076 102.279 41.4329 102.448 41.5948C102.624 41.7568 102.871 41.887 103.188 41.9856V39.8521C102.885 39.8874 102.642 39.9965 102.459 40.1796C102.283 40.3626 102.195 40.6091 102.195 40.9189ZM103.874 45.3548C104.184 45.3055 104.427 45.1822 104.603 44.9851C104.779 44.7809 104.867 44.538 104.867 44.2563C104.867 43.9747 104.779 43.7564 104.603 43.6015C104.434 43.4396 104.191 43.3093 103.874 43.2107V45.3548ZM112.803 39.6198H109.265V41.7216C109.413 41.5244 109.631 41.3589 109.919 41.2252C110.215 41.0914 110.529 41.0245 110.859 41.0245C111.451 41.0245 111.93 41.1512 112.296 41.4047C112.669 41.6582 112.933 41.9786 113.088 42.3658C113.25 42.7531 113.331 43.1615 113.331 43.591C113.331 44.112 113.229 44.5767 113.025 44.9851C112.827 45.3864 112.528 45.7033 112.127 45.9356C111.733 46.168 111.247 46.2842 110.669 46.2842C109.902 46.2842 109.286 46.0941 108.821 45.7139C108.356 45.3336 108.078 44.8302 107.987 44.2035H109.159C109.236 44.5345 109.409 44.7985 109.677 44.9957C109.944 45.1858 110.279 45.2808 110.68 45.2808C111.18 45.2808 111.553 45.1294 111.799 44.8267C112.053 44.5239 112.18 44.1226 112.18 43.6226C112.18 43.1157 112.053 42.7284 111.799 42.4609C111.546 42.1863 111.173 42.049 110.68 42.049C110.335 42.049 110.043 42.137 109.803 42.313C109.571 42.482 109.402 42.7143 109.296 43.0101H108.156V38.5636H112.803V39.6198ZM114.584 42.3341C114.584 41.116 114.788 40.1655 115.197 39.4825C115.612 38.7925 116.323 38.4474 117.33 38.4474C118.337 38.4474 119.045 38.7925 119.453 39.4825C119.869 40.1655 120.076 41.116 120.076 42.3341C120.076 43.5663 119.869 44.5309 119.453 45.228C119.045 45.918 118.337 46.2631 117.33 46.2631C116.323 46.2631 115.612 45.918 115.197 45.228C114.788 44.5309 114.584 43.5663 114.584 42.3341ZM118.893 42.3341C118.893 41.7638 118.855 41.2815 118.777 40.8872C118.707 40.4929 118.559 40.1725 118.334 39.9261C118.108 39.6726 117.774 39.5459 117.33 39.5459C116.887 39.5459 116.552 39.6726 116.327 39.9261C116.102 40.1725 115.95 40.4929 115.873 40.8872C115.802 41.2815 115.767 41.7638 115.767 42.3341C115.767 42.9256 115.802 43.422 115.873 43.8233C115.943 44.2247 116.091 44.5486 116.316 44.795C116.549 45.0414 116.887 45.1646 117.33 45.1646C117.774 45.1646 118.108 45.0414 118.334 44.795C118.566 44.5486 118.717 44.2247 118.788 43.8233C118.858 43.422 118.893 42.9256 118.893 42.3341Z" fill="#C2C3CB"/>
<path d="M158.01 44.193C158.01 44.545 157.922 44.876 157.746 45.1858C157.577 45.4956 157.323 45.7561 156.985 45.9673C156.654 46.1786 156.26 46.3053 155.802 46.3475V47.203H155.116V46.3475C154.454 46.2842 153.919 46.0765 153.51 45.7244C153.102 45.3724 152.898 44.9076 152.898 44.3303H154.186C154.208 44.6049 154.296 44.8337 154.45 45.0168C154.605 45.1928 154.827 45.3055 155.116 45.3548V43.0312C154.644 42.9115 154.26 42.7918 153.965 42.6721C153.669 42.5454 153.415 42.3482 153.204 42.0806C153 41.8131 152.898 41.447 152.898 40.9822C152.898 40.3978 153.102 39.9155 153.51 39.5353C153.919 39.148 154.454 38.9227 155.116 38.8594V38.0039H155.802V38.8594C156.422 38.9157 156.918 39.1128 157.291 39.4508C157.672 39.7817 157.886 40.2394 157.936 40.8238H156.647C156.626 40.6055 156.542 40.4119 156.394 40.2429C156.246 40.0669 156.049 39.9472 155.802 39.8838V42.1651C156.274 42.2778 156.658 42.3975 156.954 42.5242C157.249 42.6439 157.499 42.8376 157.703 43.1051C157.908 43.3656 158.01 43.7283 158.01 44.193ZM154.123 40.9189C154.123 41.2076 154.208 41.4329 154.376 41.5948C154.553 41.7568 154.799 41.887 155.116 41.9856V39.8521C154.813 39.8874 154.57 39.9965 154.387 40.1796C154.211 40.3626 154.123 40.6091 154.123 40.9189ZM155.802 45.3548C156.112 45.3055 156.355 45.1822 156.531 44.9851C156.707 44.7809 156.795 44.538 156.795 44.2563C156.795 43.9747 156.707 43.7564 156.531 43.6015C156.362 43.4396 156.119 43.3093 155.802 43.2107V45.3548ZM159.609 39.6832V38.5847H161.805V46.2842H160.591V39.6832H159.609ZM163.459 42.3341C163.459 41.116 163.664 40.1655 164.072 39.4825C164.487 38.7925 165.199 38.4474 166.206 38.4474C167.212 38.4474 167.92 38.7925 168.328 39.4825C168.744 40.1655 168.952 41.116 168.952 42.3341C168.952 43.5663 168.744 44.5309 168.328 45.228C167.92 45.918 167.212 46.2631 166.206 46.2631C165.199 46.2631 164.487 45.918 164.072 45.228C163.664 44.5309 163.459 43.5663 163.459 42.3341ZM167.769 42.3341C167.769 41.7638 167.73 41.2815 167.652 40.8872C167.582 40.4929 167.434 40.1725 167.209 39.9261C166.984 39.6726 166.649 39.5459 166.206 39.5459C165.762 39.5459 165.427 39.6726 165.202 39.9261C164.977 40.1725 164.825 40.4929 164.748 40.8872C164.678 41.2815 164.642 41.7638 164.642 42.3341C164.642 42.9256 164.678 43.422 164.748 43.8233C164.818 44.2247 164.966 44.5486 165.192 44.795C165.424 45.0414 165.762 45.1646 166.206 45.1646C166.649 45.1646 166.984 45.0414 167.209 44.795C167.441 44.5486 167.593 44.2247 167.663 43.8233C167.733 43.422 167.769 42.9256 167.769 42.3341ZM170.226 42.3341C170.226 41.116 170.43 40.1655 170.838 39.4825C171.254 38.7925 171.965 38.4474 172.972 38.4474C173.978 38.4474 174.686 38.7925 175.094 39.4825C175.51 40.1655 175.718 41.116 175.718 42.3341C175.718 43.5663 175.51 44.5309 175.094 45.228C174.686 45.918 173.978 46.2631 172.972 46.2631C171.965 46.2631 171.254 45.918 170.838 45.228C170.43 44.5309 170.226 43.5663 170.226 42.3341ZM174.535 42.3341C174.535 41.7638 174.496 41.2815 174.419 40.8872C174.348 40.4929 174.2 40.1725 173.975 39.9261C173.75 39.6726 173.415 39.5459 172.972 39.5459C172.528 39.5459 172.194 39.6726 171.968 39.9261C171.743 40.1725 171.592 40.4929 171.514 40.8872C171.444 41.2815 171.408 41.7638 171.408 42.3341C171.408 42.9256 171.444 43.422 171.514 43.8233C171.584 44.2247 171.732 44.5486 171.958 44.795C172.19 45.0414 172.528 45.1646 172.972 45.1646C173.415 45.1646 173.75 45.0414 173.975 44.795C174.207 44.5486 174.359 44.2247 174.429 43.8233C174.499 43.422 174.535 42.9256 174.535 42.3341Z" fill="#C2C3CB"/>
<path d="M213.458 44.193C213.458 44.545 213.37 44.876 213.194 45.1858C213.025 45.4956 212.771 45.7561 212.433 45.9673C212.103 46.1786 211.708 46.3053 211.251 46.3475V47.203H210.564V46.3475C209.902 46.2842 209.367 46.0765 208.959 45.7244C208.55 45.3724 208.346 44.9076 208.346 44.3303H209.635C209.656 44.6049 209.744 44.8337 209.899 45.0168C210.054 45.1928 210.275 45.3055 210.564 45.3548V43.0312C210.092 42.9115 209.709 42.7918 209.413 42.6721C209.117 42.5454 208.864 42.3482 208.652 42.0806C208.448 41.8131 208.346 41.447 208.346 40.9822C208.346 40.3978 208.55 39.9155 208.959 39.5353C209.367 39.148 209.902 38.9227 210.564 38.8594V38.0039H211.251V38.8594C211.87 38.9157 212.367 39.1128 212.74 39.4508C213.12 39.7817 213.335 40.2394 213.384 40.8238H212.095C212.074 40.6055 211.99 40.4119 211.842 40.2429C211.694 40.0669 211.497 39.9472 211.251 39.8838V42.1651C211.722 42.2778 212.106 42.3975 212.402 42.5242C212.697 42.6439 212.947 42.8376 213.152 43.1051C213.356 43.3656 213.458 43.7283 213.458 44.193ZM209.571 40.9189C209.571 41.2076 209.656 41.4329 209.825 41.5948C210.001 41.7568 210.247 41.887 210.564 41.9856V39.8521C210.261 39.8874 210.018 39.9965 209.835 40.1796C209.659 40.3626 209.571 40.6091 209.571 40.9189ZM211.251 45.3548C211.56 45.3055 211.803 45.1822 211.979 44.9851C212.155 44.7809 212.243 44.538 212.243 44.2563C212.243 43.9747 212.155 43.7564 211.979 43.6015C211.81 43.4396 211.567 43.3093 211.251 43.2107V45.3548ZM220.179 39.6198H216.641V41.7216C216.789 41.5244 217.007 41.3589 217.296 41.2252C217.592 41.0914 217.905 41.0245 218.236 41.0245C218.827 41.0245 219.306 41.1512 219.672 41.4047C220.045 41.6582 220.31 41.9786 220.464 42.3658C220.626 42.7531 220.707 43.1615 220.707 43.591C220.707 44.112 220.605 44.5767 220.401 44.9851C220.204 45.3864 219.905 45.7033 219.503 45.9356C219.109 46.168 218.623 46.2842 218.046 46.2842C217.278 46.2842 216.662 46.0941 216.198 45.7139C215.733 45.3336 215.455 44.8302 215.363 44.2035H216.535C216.613 44.5345 216.785 44.7985 217.053 44.9957C217.321 45.1858 217.655 45.2808 218.056 45.2808C218.556 45.2808 218.929 45.1294 219.176 44.8267C219.429 44.5239 219.556 44.1226 219.556 43.6226C219.556 43.1157 219.429 42.7284 219.176 42.4609C218.922 42.1863 218.549 42.049 218.056 42.049C217.711 42.049 217.419 42.137 217.18 42.313C216.947 42.482 216.778 42.7143 216.673 43.0101H215.532V38.5636H220.179V39.6198ZM221.961 42.3341C221.961 41.116 222.165 40.1655 222.573 39.4825C222.989 38.7925 223.7 38.4474 224.707 38.4474C225.714 38.4474 226.421 38.7925 226.83 39.4825C227.245 40.1655 227.453 41.116 227.453 42.3341C227.453 43.5663 227.245 44.5309 226.83 45.228C226.421 45.918 225.714 46.2631 224.707 46.2631C223.7 46.2631 222.989 45.918 222.573 45.228C222.165 44.5309 221.961 43.5663 221.961 42.3341ZM226.27 42.3341C226.27 41.7638 226.231 41.2815 226.154 40.8872C226.083 40.4929 225.935 40.1725 225.71 39.9261C225.485 39.6726 225.15 39.5459 224.707 39.5459C224.263 39.5459 223.929 39.6726 223.703 39.9261C223.478 40.1725 223.327 40.4929 223.249 40.8872C223.179 41.2815 223.144 41.7638 223.144 42.3341C223.144 42.9256 223.179 43.422 223.249 43.8233C223.32 44.2247 223.467 44.5486 223.693 44.795C223.925 45.0414 224.263 45.1646 224.707 45.1646C225.15 45.1646 225.485 45.0414 225.71 44.795C225.942 44.5486 226.094 44.2247 226.164 43.8233C226.235 43.422 226.27 42.9256 226.27 42.3341ZM228.727 42.3341C228.727 41.116 228.931 40.1655 229.339 39.4825C229.755 38.7925 230.466 38.4474 231.473 38.4474C232.48 38.4474 233.187 38.7925 233.596 39.4825C234.011 40.1655 234.219 41.116 234.219 42.3341C234.219 43.5663 234.011 44.5309 233.596 45.228C233.187 45.918 232.48 46.2631 231.473 46.2631C230.466 46.2631 229.755 45.918 229.339 45.228C228.931 44.5309 228.727 43.5663 228.727 42.3341ZM233.036 42.3341C233.036 41.7638 232.997 41.2815 232.92 40.8872C232.849 40.4929 232.701 40.1725 232.476 39.9261C232.251 39.6726 231.916 39.5459 231.473 39.5459C231.029 39.5459 230.695 39.6726 230.469 39.9261C230.244 40.1725 230.093 40.4929 230.015 40.8872C229.945 41.2815 229.91 41.7638 229.91 42.3341C229.91 42.9256 229.945 43.422 230.015 43.8233C230.086 44.2247 230.234 44.5486 230.459 44.795C230.691 45.0414 231.029 45.1646 231.473 45.1646C231.916 45.1646 232.251 45.0414 232.476 44.795C232.708 44.5486 232.86 44.2247 232.93 43.8233C233.001 43.422 233.036 42.9256 233.036 42.3341Z" fill="#C2C3CB"/>
<path d="M271.547 44.193C271.547 44.545 271.459 44.876 271.283 45.1858C271.114 45.4956 270.861 45.7561 270.523 45.9673C270.192 46.1786 269.798 46.3053 269.34 46.3475V47.203H268.653V46.3475C267.992 46.2842 267.456 46.0765 267.048 45.7244C266.64 45.3724 266.435 44.9076 266.435 44.3303H267.724C267.745 44.6049 267.833 44.8337 267.988 45.0168C268.143 45.1928 268.365 45.3055 268.653 45.3548V43.0312C268.182 42.9115 267.798 42.7918 267.502 42.6721C267.206 42.5454 266.953 42.3482 266.742 42.0806C266.538 41.8131 266.435 41.447 266.435 40.9822C266.435 40.3978 266.64 39.9155 267.048 39.5353C267.456 39.148 267.992 38.9227 268.653 38.8594V38.0039H269.34V38.8594C269.96 38.9157 270.456 39.1128 270.829 39.4508C271.209 39.7817 271.424 40.2394 271.473 40.8238H270.185C270.164 40.6055 270.079 40.4119 269.931 40.2429C269.783 40.0669 269.586 39.9472 269.34 39.8838V42.1651C269.812 42.2778 270.195 42.3975 270.491 42.5242C270.787 42.6439 271.037 42.8376 271.241 43.1051C271.445 43.3656 271.547 43.7283 271.547 44.193ZM267.661 40.9189C267.661 41.2076 267.745 41.4329 267.914 41.5948C268.09 41.7568 268.337 41.887 268.653 41.9856V39.8521C268.351 39.8874 268.108 39.9965 267.925 40.1796C267.749 40.3626 267.661 40.6091 267.661 40.9189ZM269.34 45.3548C269.65 45.3055 269.893 45.1822 270.069 44.9851C270.245 44.7809 270.333 44.538 270.333 44.2563C270.333 43.9747 270.245 43.7564 270.069 43.6015C269.9 43.4396 269.657 43.3093 269.34 43.2107V45.3548ZM273.146 39.6832V38.5847H275.343V46.2842H274.128V39.6832H273.146ZM276.997 42.3341C276.997 41.116 277.201 40.1655 277.61 39.4825C278.025 38.7925 278.736 38.4474 279.743 38.4474C280.75 38.4474 281.458 38.7925 281.866 39.4825C282.281 40.1655 282.489 41.116 282.489 42.3341C282.489 43.5663 282.281 44.5309 281.866 45.228C281.458 45.918 280.75 46.2631 279.743 46.2631C278.736 46.2631 278.025 45.918 277.61 45.228C277.201 44.5309 276.997 43.5663 276.997 42.3341ZM281.306 42.3341C281.306 41.7638 281.268 41.2815 281.19 40.8872C281.12 40.4929 280.972 40.1725 280.746 39.9261C280.521 39.6726 280.187 39.5459 279.743 39.5459C279.3 39.5459 278.965 39.6726 278.74 39.9261C278.514 40.1725 278.363 40.4929 278.286 40.8872C278.215 41.2815 278.18 41.7638 278.18 42.3341C278.18 42.9256 278.215 43.422 278.286 43.8233C278.356 44.2247 278.504 44.5486 278.729 44.795C278.962 45.0414 279.3 45.1646 279.743 45.1646C280.187 45.1646 280.521 45.0414 280.746 44.795C280.979 44.5486 281.13 44.2247 281.201 43.8233C281.271 43.422 281.306 42.9256 281.306 42.3341ZM283.763 42.3341C283.763 41.116 283.967 40.1655 284.376 39.4825C284.791 38.7925 285.502 38.4474 286.509 38.4474C287.516 38.4474 288.224 38.7925 288.632 39.4825C289.047 40.1655 289.255 41.116 289.255 42.3341C289.255 43.5663 289.047 44.5309 288.632 45.228C288.224 45.918 287.516 46.2631 286.509 46.2631C285.502 46.2631 284.791 45.918 284.376 45.228C283.967 44.5309 283.763 43.5663 283.763 42.3341ZM288.072 42.3341C288.072 41.7638 288.034 41.2815 287.956 40.8872C287.886 40.4929 287.738 40.1725 287.513 39.9261C287.287 39.6726 286.953 39.5459 286.509 39.5459C286.066 39.5459 285.731 39.6726 285.506 39.9261C285.28 40.1725 285.129 40.4929 285.052 40.8872C284.981 41.2815 284.946 41.7638 284.946 42.3341C284.946 42.9256 284.981 43.422 285.052 43.8233C285.122 44.2247 285.27 44.5486 285.495 44.795C285.728 45.0414 286.066 45.1646 286.509 45.1646C286.953 45.1646 287.287 45.0414 287.513 44.795C287.745 44.5486 287.896 44.2247 287.967 43.8233C288.037 43.422 288.072 42.9256 288.072 42.3341ZM290.529 42.3341C290.529 41.116 290.733 40.1655 291.142 39.4825C291.557 38.7925 292.268 38.4474 293.275 38.4474C294.282 38.4474 294.99 38.7925 295.398 39.4825C295.814 40.1655 296.021 41.116 296.021 42.3341C296.021 43.5663 295.814 44.5309 295.398 45.228C294.99 45.918 294.282 46.2631 293.275 46.2631C292.268 46.2631 291.557 45.918 291.142 45.228C290.733 44.5309 290.529 43.5663 290.529 42.3341ZM294.838 42.3341C294.838 41.7638 294.8 41.2815 294.722 40.8872C294.652 40.4929 294.504 40.1725 294.279 39.9261C294.053 39.6726 293.719 39.5459 293.275 39.5459C292.832 39.5459 292.497 39.6726 292.272 39.9261C292.047 40.1725 291.895 40.4929 291.818 40.8872C291.747 41.2815 291.712 41.7638 291.712 42.3341C291.712 42.9256 291.747 43.422 291.818 43.8233C291.888 44.2247 292.036 44.5486 292.261 44.795C292.494 45.0414 292.832 45.1646 293.275 45.1646C293.719 45.1646 294.053 45.0414 294.279 44.795C294.511 44.5486 294.662 44.2247 294.733 43.8233C294.803 43.422 294.838 42.9256 294.838 42.3341Z" fill="#C2C3CB"/>
<rect x="0.440068" y="10.1217" width="301.887" height="4.40068" rx="2.20034" fill="#6C5FBC" stroke="#6C5FBC" stroke-width="0.880136"/>
<circle cx="47.5275" cy="12.3219" r="10.1216" fill="#6C5FBC" stroke="#BBB6D7" stroke-width="4.40068"/>
</svg>
