<svg width="44" height="40" viewBox="0 0 44 40" fill="none" xmlns="http://www.w3.org/2000/svg">
<rect width="43.8299" height="39.7208" rx="8.93034" fill="#323142"/>
<mask id="path-2-inside-1_1_16676" fill="white">
<path d="M28.8775 21.0761H22.5379V27.5049H20.008V21.0761H13.6982V18.7843H20.008V12.3257H22.5379V18.7843H28.8775V21.0761Z"/>
</mask>
<path d="M28.8775 21.0761H22.5379V27.5049H20.008V21.0761H13.6982V18.7843H20.008V12.3257H22.5379V18.7843H28.8775V21.0761Z" fill="black"/>
<path d="M28.8775 21.0761V25.1851H32.9865V21.0761H28.8775ZM22.5379 21.0761V16.967H18.4289V21.0761H22.5379ZM22.5379 27.5049V31.614H26.647V27.5049H22.5379ZM20.008 27.5049H15.899V31.614H20.008V27.5049ZM20.008 21.0761H24.1171V16.967H20.008V21.0761ZM13.6982 21.0761H9.58919V25.1851H13.6982V21.0761ZM13.6982 18.7843V14.6753H9.58919V18.7843H13.6982ZM20.008 18.7843V22.8934H24.1171V18.7843H20.008ZM20.008 12.3257V8.21663H15.899V12.3257H20.008ZM22.5379 12.3257H26.647V8.21663H22.5379V12.3257ZM22.5379 18.7843H18.4289V22.8934H22.5379V18.7843ZM28.8775 18.7843H32.9865V14.6753H28.8775V18.7843ZM28.8775 16.967H22.5379V25.1851H28.8775V16.967ZM18.4289 21.0761V27.5049H26.647V21.0761H18.4289ZM22.5379 23.3959H20.008V31.614H22.5379V23.3959ZM24.1171 27.5049V21.0761H15.899V27.5049H24.1171ZM20.008 16.967H13.6982V25.1851H20.008V16.967ZM17.8073 21.0761V18.7843H9.58919V21.0761H17.8073ZM13.6982 22.8934H20.008V14.6753H13.6982V22.8934ZM24.1171 18.7843V12.3257H15.899V18.7843H24.1171ZM20.008 16.4347H22.5379V8.21663H20.008V16.4347ZM18.4289 12.3257V18.7843H26.647V12.3257H18.4289ZM22.5379 22.8934H28.8775V14.6753H22.5379V22.8934ZM24.7684 18.7843V21.0761H32.9865V18.7843H24.7684Z" fill="white" mask="url(#path-2-inside-1_1_16676)"/>
</svg>
