<svg width="169" height="61" viewBox="0 0 169 61" fill="none" xmlns="http://www.w3.org/2000/svg">
<path d="M168.463 5.49485C168.689 4.79903 168.309 4.05129 167.613 3.82471C166.917 3.59815 166.17 3.97854 165.943 4.67436L168.463 5.49485ZM134.164 37.4889L134.371 38.7977L134.164 37.4889ZM94.8858 15.5888L96.2107 15.5783L94.8858 15.5888ZM106.652 1.35456L106.743 2.6764L106.652 1.35456ZM119.14 11.739L117.894 12.1891L119.14 11.739ZM85.8195 46.9219L85.9649 48.2389L85.8195 46.9219ZM50.043 24.3531L51.3658 24.2774L50.043 24.3531ZM58.5539 13.3876L58.8804 14.6718L58.5539 13.3876ZM32.7792 58.617L32.8844 57.2962L32.7792 58.617ZM1.32545 39.0685L1.62601 37.778C1.1552 37.6684 0.662037 37.8238 0.339208 38.1836C0.0163908 38.5434 -0.0848598 39.0505 0.0750289 39.5067L1.32545 39.0685ZM12.9254 43.1307C13.6381 43.2966 14.3504 42.8535 14.5164 42.1408C14.6824 41.4281 14.2392 40.7157 13.5265 40.5497L12.9254 43.1307ZM4.31895 51.6156C4.56099 52.3062 5.31703 52.6698 6.00762 52.4278C6.69821 52.1858 7.06184 51.4297 6.8198 50.7391L4.31895 51.6156ZM167.203 5.0846C165.943 4.67436 165.943 4.67403 165.943 4.67382C165.943 4.67389 165.943 4.67378 165.943 4.67392C165.943 4.67421 165.943 4.67492 165.942 4.67607C165.942 4.67837 165.94 4.68238 165.938 4.68808C165.935 4.6995 165.929 4.71767 165.92 4.7424C165.904 4.79187 165.878 4.86757 165.842 4.96788C165.772 5.16851 165.664 5.46745 165.517 5.8517C165.224 6.62038 164.778 7.7293 164.167 9.07455C162.946 11.7678 161.076 15.3939 158.484 19.129C153.283 26.6256 145.298 34.3911 133.958 36.1801L134.371 38.7977C146.736 36.847 155.27 28.4103 160.661 20.6397C163.366 16.7413 165.311 12.9675 166.581 10.1692C167.216 8.76873 167.684 7.60901 167.994 6.79549C168.149 6.38863 168.264 6.06809 168.342 5.847C168.381 5.73644 168.41 5.65072 168.431 5.59149C168.441 5.56188 168.448 5.53888 168.454 5.52271C168.456 5.51462 168.458 5.50823 168.46 5.50359C168.461 5.50126 168.461 5.49936 168.462 5.49791C168.462 5.49718 168.462 5.49642 168.462 5.49605C168.463 5.4954 168.463 5.49485 167.203 5.0846ZM133.958 36.1801C125.102 37.5772 115.6 35.9451 108.335 32.1437C101.052 28.3326 96.2655 22.4999 96.2107 15.5783L93.5608 15.5993C93.6263 23.8734 99.3472 30.4314 107.107 34.4917C114.885 38.5617 124.963 40.2818 134.371 38.7977L133.958 36.1801ZM96.2107 15.5783C96.1947 13.5498 97.0347 10.3869 98.8435 7.67653C100.635 4.99187 103.257 2.9177 106.743 2.6764L106.56 0.0327232C102.01 0.347636 98.7308 3.0716 96.6393 6.20552C94.565 9.31372 93.5402 12.9899 93.5608 15.5993L96.2107 15.5783ZM106.743 2.6764C110.04 2.44822 112.4 3.7501 114.165 5.63361C115.969 7.55927 117.135 10.0872 117.894 12.1891L120.387 11.2889C119.582 9.06088 118.267 6.13617 116.099 3.82188C113.891 1.46543 110.789 -0.25997 106.56 0.0327232L106.743 2.6764ZM117.894 12.1891C120.92 20.5674 117.694 28.3045 111.186 34.3444C104.657 40.4051 94.969 44.5787 85.6741 45.6049L85.9649 48.2389C95.7649 47.157 106.001 42.7733 112.989 36.2867C120 29.7792 123.886 20.9789 120.387 11.2889L117.894 12.1891ZM85.6741 45.6049C77.7021 46.4851 69.2784 45.001 62.7771 41.3469C56.3027 37.7078 51.8063 31.9739 51.3658 24.2774L48.7201 24.4288C49.2236 33.2247 54.4057 39.6815 61.4787 43.657C68.5248 47.6174 77.5174 49.1716 85.9649 48.2389L85.6741 45.6049ZM51.3658 24.2774C51.2276 21.8635 51.808 19.8229 53.0131 18.2284C54.2205 16.6308 56.1406 15.3682 58.8804 14.6718L58.2275 12.1035C55.0271 12.917 52.5386 14.461 50.8989 16.6306C49.257 18.8032 48.5519 21.4903 48.7201 24.4288L51.3658 24.2774ZM58.8804 14.6718C61.3856 14.035 63.4119 14.5438 65.1225 15.7747C66.887 17.0443 68.3791 19.1338 69.5957 21.7336L71.9959 20.6105C70.6808 17.8001 68.9466 15.2616 66.6703 13.6237C64.3403 11.9471 61.5114 11.2687 58.2275 12.1035L58.8804 14.6718ZM69.5957 21.7336C73.67 30.4404 69.3612 39.5668 61.2533 46.5827C53.1648 53.5819 41.7728 58.0042 32.8844 57.2962L32.674 59.9378C42.4388 60.7157 54.5056 55.9261 62.9873 48.5866C71.4496 41.2639 76.8225 30.9248 71.9959 20.6105L69.5957 21.7336ZM32.8844 57.2962C25.9849 56.7466 18.3898 52.0858 12.3808 47.3636C9.40817 45.0275 6.88322 42.7247 5.10129 41.0054C4.211 40.1464 3.50787 39.4347 3.02892 38.9395C2.78949 38.6919 2.60619 38.4986 2.48366 38.3681C2.42241 38.3029 2.37634 38.2534 2.34607 38.2207C2.33093 38.2044 2.31974 38.1922 2.31256 38.1844C2.30898 38.1805 2.30639 38.1777 2.30483 38.176C2.30404 38.1752 2.30351 38.1746 2.30324 38.1743C2.3031 38.1741 2.30308 38.1741 2.30301 38.174C2.30306 38.1741 2.30317 38.1742 1.32545 39.0685C0.34774 39.9627 0.347975 39.963 0.348283 39.9633C0.348469 39.9635 0.348836 39.9639 0.349208 39.9643C0.349953 39.9652 0.350959 39.9662 0.352215 39.9676C0.354738 39.9704 0.358281 39.9742 0.362831 39.9792C0.371931 39.989 0.385073 40.0033 0.402198 40.0218C0.436435 40.0587 0.48657 40.1126 0.552028 40.1823C0.682937 40.3217 0.875162 40.5244 1.12405 40.7818C1.62176 41.2964 2.34656 42.0299 3.26126 42.9125C5.08933 44.6763 7.68271 47.0419 10.7434 49.4472C16.8012 54.2078 24.933 59.3212 32.674 59.9378L32.8844 57.2962ZM1.02489 40.3589L12.9254 43.1307L13.5265 40.5497L1.62601 37.778L1.02489 40.3589ZM0.0750289 39.5067L4.31895 51.6156L6.8198 50.7391L2.57588 38.6302L0.0750289 39.5067Z" fill="#6C5FBC"/>
</svg>
