<svg width="122" height="22" viewBox="0 0 122 22" fill="none" xmlns="http://www.w3.org/2000/svg">
<path fill-rule="evenodd" clip-rule="evenodd" d="M32.1572 10.6674C32.1572 11.3219 31.6266 11.8525 30.972 11.8525L2.52659 11.8525C1.87204 11.8525 1.34141 11.3219 1.34141 10.6674C1.34141 10.0128 1.87204 9.48217 2.52659 9.48217L30.972 9.48218C31.6266 9.48218 32.1572 10.0128 32.1572 10.6674Z" fill="#CECECE"/>
<path fill-rule="evenodd" clip-rule="evenodd" d="M9.60674 21.0583C9.10391 21.4773 8.35657 21.4094 7.93752 20.9065L0.457554 11.9309C-0.152923 11.1984 -0.152921 10.1343 0.457555 9.40175L7.93752 0.426133C8.35657 -0.0767046 9.10391 -0.14463 9.60674 0.274418C10.1096 0.693465 10.1775 1.4408 9.75846 1.94364L2.48926 10.6663L9.75846 19.389C10.1775 19.8919 10.1096 20.6392 9.60674 21.0583Z" fill="#CECECE"/>
<path fill-rule="evenodd" clip-rule="evenodd" d="M88.8887 10.6686C88.8887 10.014 89.4193 9.4834 90.0739 9.4834L118.519 9.4834C119.174 9.4834 119.704 10.014 119.704 10.6686C119.704 11.3231 119.174 11.8538 118.519 11.8538L90.0739 11.8538C89.4193 11.8538 88.8887 11.3231 88.8887 10.6686Z" fill="#605E5E"/>
<path fill-rule="evenodd" clip-rule="evenodd" d="M111.44 0.276697C111.943 -0.14235 112.69 -0.0744247 113.109 0.428413L120.589 9.40403C121.2 10.1366 121.2 11.2007 120.589 11.9332L113.109 20.9088C112.69 21.4117 111.943 21.4796 111.44 21.0605C110.937 20.6415 110.869 19.8942 111.288 19.3913L118.558 10.6686L111.288 1.94592C110.869 1.44308 110.937 0.695744 111.44 0.276697Z" fill="#605E5E"/>
</svg>
