<svg width="41" height="41" viewBox="0 0 41 41" fill="none" xmlns="http://www.w3.org/2000/svg">
<circle cx="20.0426" cy="20.0426" r="20.0426" fill="#DBD9EE"/>
<path d="M24.4345 10.6744C21.5329 10.188 18.555 10.188 15.6534 10.6744C14.5934 10.8521 13.7492 11.6659 13.5367 12.7211C12.563 17.5551 12.5098 22.5294 13.3801 27.3831L13.7344 29.3592C13.8436 29.9685 14.5865 30.2121 15.0353 29.7857L19.3119 25.7229C19.7222 25.3331 20.3658 25.3331 20.776 25.7229L25.0527 29.7857C25.5015 30.2121 26.2443 29.9685 26.3536 29.3592L26.7079 27.3831C27.5781 22.5294 27.525 17.5551 26.5513 12.7211C26.3387 11.6659 25.4945 10.8521 24.4345 10.6744Z" fill="#6C5FBC"/>
</svg>
