<svg width="26" height="26" viewBox="0 0 26 26" fill="none" xmlns="http://www.w3.org/2000/svg">
<path d="M15.9563 21.1567C17.6604 22.0895 19.1589 20.959 18.833 18.9807L18.2479 15.4287L20.7266 12.9131C22.1052 11.514 21.5357 9.68081 19.6278 9.39218L16.2023 8.87394L14.6779 5.65815C13.824 3.85681 11.97 3.83744 11.1145 5.64216L9.58258 8.87394L6.15702 9.39218C4.25188 9.6804 3.67769 11.512 5.05822 12.9131L7.53697 15.4287L6.95182 18.9807C6.62638 20.9562 8.1221 22.0908 9.82852 21.1567L12.8924 19.4797L15.9563 21.1567Z" fill="#6C5FBC"/>
<mask id="mask0_1_16751" style="mask-type:luminance" maskUnits="userSpaceOnUse" x="4" y="4" width="18" height="18">
<path d="M15.9563 21.1567C17.6604 22.0895 19.1589 20.959 18.833 18.9807L18.2479 15.4287L20.7266 12.9131C22.1052 11.514 21.5357 9.68081 19.6278 9.39218L16.2023 8.87394L14.6779 5.65815C13.824 3.85681 11.97 3.83744 11.1145 5.64216L9.58258 8.87394L6.15702 9.39218C4.25188 9.6804 3.67769 11.512 5.05822 12.9131L7.53697 15.4287L6.95182 18.9807C6.62638 20.9562 8.1221 22.0908 9.82852 21.1567L12.8924 19.4797L15.9563 21.1567Z" fill="white"/>
</mask>
<g mask="url(#mask0_1_16751)">
</g>
</svg>
