<svg width="16" height="16" viewBox="0 0 16 16" fill="none" xmlns="http://www.w3.org/2000/svg">
<path fill-rule="evenodd" clip-rule="evenodd" d="M7.93271 0C8.99321 0.0378781 10.0916 0.0378781 11.1521 0.0757512C12.099 0.113624 12.9701 0.265125 13.8033 0.757496C14.8638 1.40137 15.5077 2.34824 15.735 3.56023C15.8486 4.27985 15.8865 5.03735 15.9243 5.75698C15.9622 7.34771 15.9243 8.93846 15.9243 10.5292C15.9243 11.3624 15.8865 12.1957 15.6213 12.9911C15.0911 14.5439 13.9927 15.4908 12.402 15.7938C11.6823 15.9453 10.9248 15.9453 10.2052 15.9832C8.61446 16.021 7.06159 15.9832 5.47083 15.9832C4.63758 15.9832 3.80433 15.9453 3.00896 15.6802C1.45608 15.1499 0.509209 14.0515 0.206207 12.4608C0.0547099 11.7412 0.0547099 10.9837 0.0168343 10.2641C-0.0210429 8.67333 0.0168343 7.08259 0.0168343 5.49185C0.0168343 4.65861 0.0547099 3.82536 0.319834 3.02998C0.850086 1.47711 1.94846 0.530251 3.53921 0.227251C4.25884 0.0757562 5.01634 0.0757562 5.73596 0.0378781C6.45559 0 7.17521 0 7.93271 0ZM14.485 7.84071C14.4471 7.84071 14.485 7.84071 14.485 7.84071C14.4471 7.19684 14.4471 6.59084 14.4471 5.94696C14.4471 5.34097 14.4092 4.73497 14.3335 4.12898C14.182 2.76548 13.3866 1.85648 12.061 1.59136C11.3792 1.43987 10.6217 1.43987 9.93996 1.43987C8.57646 1.40199 7.25084 1.40199 5.88734 1.43987C5.20559 1.43987 4.52384 1.47773 3.87996 1.59136C2.74371 1.78074 1.94833 2.42461 1.60746 3.56085C1.49384 3.9396 1.45596 4.31835 1.41808 4.69709C1.38021 6.13634 1.38021 7.57558 1.38021 9.01482C1.38021 9.92382 1.41808 10.8707 1.49384 11.7797C1.60746 13.1432 2.44071 14.09 3.80421 14.3173C4.48596 14.4309 5.20559 14.4688 5.92521 14.4688C7.25084 14.5067 8.57646 14.4688 9.93996 14.4688C10.546 14.4688 11.152 14.4309 11.758 14.3552C12.3261 14.3173 12.8563 14.1279 13.3108 13.7492C14.0683 13.1432 14.3335 12.3478 14.3713 11.4388C14.4471 10.3026 14.4471 9.09057 14.485 7.84071Z" fill="#081420"/>
<path fill-rule="evenodd" clip-rule="evenodd" d="M12.0228 7.99085C12.0228 10.2633 10.2048 12.0813 7.9323 12.0813C5.6598 12.0813 3.8418 10.2633 3.8418 7.95298C3.8418 5.71837 5.69767 3.90039 7.97017 3.90039C10.2048 3.90039 12.0228 5.71837 12.0228 7.99085ZM7.93272 10.6429C9.37197 10.6429 10.584 9.43095 10.584 7.99172C10.584 6.55249 9.37197 5.34049 7.93272 5.34049C6.45559 5.34049 5.28146 6.55249 5.28146 7.99172C5.24359 9.43095 6.45559 10.6429 7.93272 10.6429Z" fill="#081420"/>
<path d="M13.1215 3.71152C13.1215 4.24178 12.7049 4.69628 12.1747 4.69628C11.6444 4.69628 11.1899 4.24178 11.2278 3.71152C11.2278 3.18128 11.6444 2.76465 12.1747 2.76465C12.7049 2.76465 13.1215 3.18127 13.1215 3.71152Z" fill="#081420"/>
</svg>
