<svg width="25" height="25" viewBox="0 0 25 25" fill="none" xmlns="http://www.w3.org/2000/svg">
<circle cx="12.4444" cy="12.4444" r="12.4444" fill="#EB3F5E"/>
<path d="M8.2995 17.7821C7.99737 17.7821 7.69523 17.6708 7.45671 17.4323C6.99555 16.9712 6.99555 16.2079 7.45671 15.7467L16.4572 6.74626C16.9183 6.2851 17.6816 6.2851 18.1428 6.74626C18.6039 7.20741 18.6039 7.9707 18.1428 8.43185L9.1423 17.4323C8.91968 17.6708 8.60164 17.7821 8.2995 17.7821Z" fill="#F9F9F9"/>
<path d="M17.3 17.7821C16.9978 17.7821 16.6957 17.6708 16.4572 17.4323L7.45671 8.43185C6.99555 7.9707 6.99555 7.20741 7.45671 6.74626C7.91786 6.2851 8.68115 6.2851 9.1423 6.74626L18.1428 15.7467C18.6039 16.2079 18.6039 16.9712 18.1428 17.4323C17.9042 17.6708 17.6021 17.7821 17.3 17.7821Z" fill="#F9F9F9"/>
</svg>
