<svg width="16" height="16" viewBox="0 0 16 16" fill="none" xmlns="http://www.w3.org/2000/svg">
<path fill-rule="evenodd" clip-rule="evenodd" d="M15.9413 9.32412V15.2107H12.5038V9.71083C12.5038 8.33586 12.0312 7.39057 10.7851 7.39057C9.83978 7.39057 9.28119 8.03509 9.02338 8.63664C8.93745 8.85147 8.89448 9.15225 8.89448 9.45302V15.2107H5.45703C5.45703 15.2107 5.5 5.88669 5.45703 4.9414H8.89448V6.40231C8.89448 6.40231 8.89448 6.44527 8.85151 6.44527H8.89448V6.40231C9.36713 5.71482 10.1406 4.68359 11.9882 4.68359C14.2225 4.68359 15.9413 6.18747 15.9413 9.32412ZM1.93357 0C0.773426 0 0 0.773422 0 1.76168C0 2.74994 0.730459 3.52337 1.8906 3.52337H1.93357C3.13668 3.52337 3.86713 2.74995 3.86713 1.76168C3.82417 0.773422 3.09371 0 1.93357 0ZM0.171875 15.2107H3.56636V4.94141H0.171875V15.2107Z" fill="#081420"/>
</svg>
