<svg width="42" height="42" viewBox="0 0 42 42" fill="none" xmlns="http://www.w3.org/2000/svg">
<circle opacity="0.3" cx="20.9927" cy="20.9927" r="20.9927" fill="#6C5FBC"/>
<path d="M17.5206 18.8853C17.5206 16.8368 19.1812 15.1762 21.2297 15.1762C23.2782 15.1762 24.9388 16.8368 24.9388 18.8853C24.9388 20.9338 23.2782 22.5944 21.2297 22.5944C19.1812 22.5944 17.5206 20.9338 17.5206 18.8853Z" fill="#6C5FBC"/>
<path fill-rule="evenodd" clip-rule="evenodd" d="M11.8412 17.6041C12.2334 12.8462 16.2093 9.18457 20.9833 9.18457H21.4762C26.2502 9.18457 30.2261 12.8462 30.6183 17.6041C30.8295 20.1658 30.0382 22.7094 28.4111 24.6992L22.941 31.3891C22.0565 32.4707 20.4029 32.4707 19.5185 31.3891L14.0484 24.6992C12.4213 22.7094 11.63 20.1658 11.8412 17.6041ZM21.2297 13.4643C18.2358 13.4643 15.8087 15.8914 15.8087 18.8853C15.8087 21.8792 18.2358 24.3063 21.2297 24.3063C24.2236 24.3063 26.6507 21.8792 26.6507 18.8853C26.6507 15.8914 24.2236 13.4643 21.2297 13.4643Z" fill="#6C5FBC"/>
</svg>
