<svg width="51" height="51" viewBox="0 0 51 51" fill="none" xmlns="http://www.w3.org/2000/svg">
<rect width="50.2588" height="50.2588" rx="25.1294" fill="#F4F0FF"/>
<path d="M25.8202 14.4161L25.7888 14.4893L22.7523 21.5361H19.7682C19.0562 21.5361 18.3756 21.6826 17.7578 21.9444L19.5902 17.5677L19.632 17.463L19.7053 17.2955C19.7263 17.2326 19.7472 17.1698 19.7786 17.1175C21.1503 13.9449 22.6999 13.2224 25.8202 14.4161Z" stroke="#936DFF" stroke-width="1.57059" stroke-linecap="round" stroke-linejoin="round"/>
<path d="M31.4635 21.7454C30.9923 21.5988 30.4897 21.536 29.9871 21.536H22.752L25.7884 14.4893L25.8198 14.416C25.9769 14.4684 26.1235 14.5417 26.2805 14.6045L28.5945 15.5783C29.8824 16.1123 30.7829 16.6672 31.3274 17.3373C31.4321 17.463 31.5158 17.5781 31.5891 17.7143C31.6834 17.8608 31.7567 18.0074 31.7985 18.1645C31.8404 18.2587 31.8718 18.353 31.8928 18.4367C32.1755 19.3163 32.008 20.3947 31.4635 21.7454Z" stroke="#936DFF" stroke-width="1.57059" stroke-linecap="round" stroke-linejoin="round"/>
<path d="M35.098 26.6463V28.688C35.098 28.8974 35.0876 29.1069 35.0771 29.3163C34.8782 32.9705 32.8364 34.8133 28.9623 34.8133H20.7952C20.5439 34.8133 20.2926 34.7924 20.0518 34.761C16.7222 34.5411 14.9422 32.7611 14.7223 29.4314C14.6909 29.1906 14.6699 28.9393 14.6699 28.688V26.6463C14.6699 24.5417 15.9473 22.7303 17.7692 21.945C18.3975 21.6832 19.0676 21.5366 19.7796 21.5366H29.9989C30.5119 21.5366 31.0145 21.6099 31.4752 21.746C33.5589 22.3847 35.098 24.3323 35.098 26.6463Z" stroke="#936DFF" stroke-width="1.57059" stroke-linecap="round" stroke-linejoin="round"/>
<path d="M19.5899 17.5679L17.7575 21.9446C15.9356 22.7299 14.6582 24.5413 14.6582 26.6459V23.578C14.6582 20.6043 16.7733 18.1228 19.5899 17.5679Z" stroke="#936DFF" stroke-width="1.57059" stroke-linecap="round" stroke-linejoin="round"/>
<path d="M35.0955 23.5769V26.6448C35.0955 24.3412 33.5668 22.3832 31.4727 21.755C32.0171 20.3938 32.1742 19.3258 31.9124 18.4358C31.8915 18.3416 31.8601 18.2473 31.8182 18.1636C33.7657 19.1688 35.0955 21.2315 35.0955 23.5769Z" stroke="#936DFF" stroke-width="1.57059" stroke-linecap="round" stroke-linejoin="round"/>
</svg>
