<svg width="42" height="42" viewBox="0 0 42 42" fill="none" xmlns="http://www.w3.org/2000/svg">
<circle opacity="0.3" cx="20.9927" cy="20.9927" r="20.9927" fill="#6C5FBC"/>
<path fill-rule="evenodd" clip-rule="evenodd" d="M10.4961 21.6485C10.4961 15.4892 15.4892 10.4961 21.6485 10.4961C27.8078 10.4961 32.8009 15.4892 32.8009 21.6485C32.8009 27.8078 27.8078 32.8009 21.6485 32.8009C15.4892 32.8009 10.4961 27.8078 10.4961 21.6485ZM22.6325 15.0883C22.6325 14.5448 22.1919 14.1042 21.6485 14.1042C21.105 14.1042 20.6644 14.5448 20.6644 15.0883V21.6485C20.6644 21.9878 20.8392 22.3031 21.1269 22.4829L25.0631 24.943C25.5239 25.2311 26.131 25.091 26.4191 24.6301C26.7071 24.1692 26.567 23.5621 26.1061 23.2741L22.6325 21.1031V15.0883Z" fill="#6C5FBC"/>
</svg>
