<svg width="123" height="31" viewBox="0 0 123 31" fill="none" xmlns="http://www.w3.org/2000/svg">
<path d="M32.3291 10.7015H44.7726V13.018H39.8731V26.0765H37.1876V13.018H32.3086L32.3291 10.7015ZM44.2396 14.945H46.5356V17.0975H46.5766C46.6586 16.79 46.8021 16.503 47.0071 16.216C47.2121 15.929 47.4581 15.6625 47.7656 15.437C48.0526 15.191 48.3806 15.0065 48.7496 14.863C49.0981 14.7195 49.4671 14.6375 49.8361 14.6375C50.1231 14.6375 50.3281 14.658 50.4306 14.658C50.5331 14.6785 50.6561 14.699 50.7586 14.699V17.0565C50.5946 17.0155 50.4101 16.995 50.2256 16.9745C50.0411 16.954 49.8771 16.9335 49.6926 16.9335C49.2826 16.9335 48.8931 17.0155 48.5241 17.1795C48.1551 17.3435 47.8476 17.5895 47.5606 17.897C47.2941 18.225 47.0686 18.6145 46.9046 19.086C46.7406 19.5575 46.6586 20.111 46.6586 20.726V26.015H44.1986L44.2396 14.945ZM62.0336 26.0765H59.6146V24.5185H59.5736C59.2661 25.0925 58.8151 25.523 58.2206 25.8715C57.6261 26.22 57.0111 26.384 56.3961 26.384C54.9406 26.384 53.8746 26.0355 53.2186 25.2975C52.5626 24.58 52.2346 23.473 52.2346 22.0175V14.945H54.6946V21.7715C54.6946 22.7555 54.8791 23.4525 55.2686 23.842C55.6376 24.252 56.1706 24.457 56.8471 24.457C57.3596 24.457 57.7901 24.375 58.1386 24.211C58.4871 24.047 58.7741 23.842 58.9791 23.5755C59.2046 23.309 59.3481 22.981 59.4506 22.612C59.5531 22.243 59.5941 21.833 59.5941 21.4025V14.945H62.0541V26.0765H62.0336ZM66.2156 22.5095C66.2976 23.227 66.5641 23.719 67.0356 24.0265C67.5071 24.3135 68.0811 24.457 68.7371 24.457C68.9626 24.457 69.2291 24.4365 69.5161 24.3955C69.8031 24.3545 70.0901 24.293 70.3361 24.1905C70.6026 24.088 70.8076 23.9445 70.9716 23.7395C71.1356 23.5345 71.2176 23.2885 71.1971 22.981C71.1766 22.6735 71.0741 22.407 70.8486 22.202C70.6231 21.997 70.3566 21.8535 70.0286 21.71C69.7006 21.587 69.3111 21.4845 68.8806 21.4025C68.4501 21.3205 68.0196 21.218 67.5686 21.1155C67.1176 21.013 66.6666 20.89 66.2361 20.7465C65.8056 20.603 65.4366 20.4185 65.0881 20.152C64.7601 19.906 64.4731 19.5985 64.2886 19.209C64.0836 18.8195 63.9811 18.3685 63.9811 17.7945C63.9811 17.1795 64.1246 16.6875 64.4321 16.2775C64.7191 15.8675 65.1086 15.5395 65.5596 15.2935C66.0106 15.0475 66.5231 14.863 67.0766 14.7605C67.6301 14.658 68.1631 14.617 68.6551 14.617C69.2291 14.617 69.7826 14.6785 70.2951 14.8015C70.8076 14.9245 71.2996 15.109 71.7096 15.396C72.1401 15.6625 72.4886 16.0315 72.7551 16.462C73.0421 16.8925 73.2061 17.4255 73.2881 18.0405H70.7256C70.6026 17.446 70.3361 17.0565 69.9261 16.8515C69.4956 16.6465 69.0241 16.544 68.4706 16.544C68.3066 16.544 68.0811 16.5645 67.8556 16.585C67.6096 16.626 67.4046 16.667 67.1791 16.749C66.9741 16.831 66.7896 16.954 66.6461 17.0975C66.5026 17.241 66.4206 17.446 66.4206 17.692C66.4206 17.9995 66.5231 18.225 66.7281 18.4095C66.9331 18.594 67.1996 18.7375 67.5481 18.881C67.8761 19.004 68.2656 19.1065 68.6961 19.1885C69.1266 19.2705 69.5776 19.373 70.0286 19.4755C70.4796 19.578 70.9101 19.701 71.3406 19.8445C71.7711 19.988 72.1606 20.1725 72.4886 20.439C72.8166 20.685 73.1036 20.9925 73.3086 21.3615C73.5136 21.7305 73.6161 22.202 73.6161 22.735C73.6161 23.391 73.4726 23.9445 73.1651 24.416C72.8576 24.867 72.4681 25.2565 71.9966 25.5435C71.5251 25.8305 70.9716 26.0355 70.3976 26.179C69.8031 26.302 69.2291 26.384 68.6551 26.384C67.9581 26.384 67.3021 26.302 66.7076 26.138C66.1131 25.974 65.5801 25.728 65.1496 25.4205C64.7191 25.0925 64.3706 24.703 64.1246 24.211C63.8786 23.7395 63.7351 23.1655 63.7146 22.489H66.1951V22.5095H66.2156ZM74.3131 14.945H76.1786V11.583H78.6386V14.9245H80.8526V16.749H78.6386V22.694C78.6386 22.9605 78.6591 23.1655 78.6796 23.3705C78.7001 23.555 78.7616 23.719 78.8231 23.842C78.9051 23.965 79.0281 24.0675 79.1716 24.129C79.3356 24.1905 79.5406 24.2315 79.8276 24.2315C79.9916 24.2315 80.1761 24.2315 80.3401 24.211C80.5041 24.1905 80.6886 24.17 80.8526 24.129V26.0355C80.5861 26.0765 80.3196 26.097 80.0531 26.1175C79.7866 26.1585 79.5406 26.1585 79.2536 26.1585C78.5976 26.1585 78.0851 26.097 77.6956 25.974C77.3061 25.851 76.9986 25.6665 76.7731 25.441C76.5476 25.195 76.4041 24.908 76.3221 24.5595C76.2401 24.211 76.1991 23.7805 76.1786 23.3295V16.7695H74.3131V14.904V14.945ZM82.5746 14.945H84.8911V16.462H84.9321C85.2806 15.806 85.7521 15.355 86.3671 15.068C86.9821 14.781 87.6381 14.6375 88.3761 14.6375C89.2576 14.6375 90.0161 14.781 90.6721 15.109C91.3281 15.4165 91.8611 15.8265 92.2916 16.38C92.7221 16.913 93.0501 17.5485 93.2551 18.266C93.4601 18.9835 93.5831 19.7625 93.5831 20.562C93.5831 21.3205 93.4806 22.038 93.2961 22.735C93.0911 23.432 92.8041 24.0675 92.4146 24.6005C92.0251 25.1335 91.5331 25.564 90.9181 25.892C90.3031 26.22 89.6061 26.384 88.7861 26.384C88.4376 26.384 88.0686 26.343 87.7201 26.2815C87.3716 26.22 87.0231 26.1175 86.6951 25.974C86.3671 25.8305 86.0596 25.646 85.7931 25.4205C85.5061 25.195 85.2806 24.9285 85.0961 24.6415H85.0551V30.197H82.5951V14.945H82.5746ZM91.1641 20.521C91.1641 20.029 91.1026 19.537 90.9591 19.0655C90.8361 18.594 90.6311 18.184 90.3646 17.815C90.0981 17.446 89.7701 17.159 89.4011 16.9335C89.0116 16.708 88.5606 16.6055 88.0686 16.6055C87.0436 16.6055 86.2646 16.954 85.7316 17.6715C85.2191 18.389 84.9526 19.3525 84.9526 20.5415C84.9526 21.1155 85.0141 21.628 85.1576 22.0995C85.3011 22.571 85.4856 22.981 85.7726 23.3295C86.0391 23.678 86.3671 23.9445 86.7566 24.1495C87.1461 24.3545 87.5766 24.457 88.0891 24.457C88.6631 24.457 89.1141 24.334 89.5036 24.1085C89.8931 23.883 90.2006 23.5755 90.4671 23.227C90.7131 22.858 90.8976 22.448 91.0001 21.9765C91.1026 21.4845 91.1641 21.013 91.1641 20.521ZM95.4896 10.7015H97.9496V13.018H95.4896V10.7015ZM95.4896 14.945H97.9496V26.0765H95.4896V14.945ZM100.143 10.7015H102.603V26.0765H100.143V10.7015ZM110.106 26.384C109.225 26.384 108.425 26.2405 107.728 25.933C107.031 25.6255 106.457 25.236 105.965 24.7235C105.494 24.211 105.125 23.5755 104.879 22.858C104.633 22.1405 104.489 21.341 104.489 20.5005C104.489 19.66 104.612 18.881 104.879 18.1635C105.125 17.446 105.494 16.831 105.965 16.298C106.437 15.7855 107.031 15.3755 107.728 15.0885C108.425 14.8015 109.225 14.6375 110.106 14.6375C110.988 14.6375 111.787 14.781 112.484 15.0885C113.181 15.3755 113.755 15.7855 114.247 16.298C114.719 16.8105 115.088 17.446 115.334 18.1635C115.58 18.881 115.723 19.66 115.723 20.5005C115.723 21.3615 115.6 22.1405 115.334 22.858C115.067 23.5755 114.719 24.1905 114.247 24.7235C113.776 25.236 113.181 25.646 112.484 25.933C111.787 26.22 111.008 26.384 110.106 26.384ZM110.106 24.4365C110.639 24.4365 111.131 24.3135 111.521 24.088C111.931 23.8625 112.238 23.555 112.505 23.186C112.771 22.817 112.956 22.3865 113.079 21.9355C113.202 21.464 113.263 20.9925 113.263 20.5005C113.263 20.029 113.202 19.5575 113.079 19.086C112.956 18.6145 112.771 18.2045 112.505 17.8355C112.238 17.4665 111.91 17.1795 111.521 16.954C111.111 16.7285 110.639 16.6055 110.106 16.6055C109.573 16.6055 109.081 16.7285 108.692 16.954C108.282 17.1795 107.974 17.487 107.708 17.8355C107.441 18.2045 107.257 18.6145 107.134 19.086C107.011 19.5575 106.949 20.029 106.949 20.5005C106.949 20.9925 107.011 21.464 107.134 21.9355C107.257 22.407 107.441 22.817 107.708 23.186C107.974 23.555 108.302 23.8625 108.692 24.088C109.102 24.334 109.573 24.4365 110.106 24.4365ZM116.461 14.945H118.327V11.583H120.787V14.9245H123.001V16.749H120.787V22.694C120.787 22.9605 120.807 23.1655 120.828 23.3705C120.848 23.555 120.91 23.719 120.971 23.842C121.053 23.965 121.176 24.0675 121.32 24.129C121.484 24.1905 121.689 24.2315 121.976 24.2315C122.14 24.2315 122.324 24.2315 122.488 24.211C122.652 24.1905 122.837 24.17 123.001 24.129V26.0355C122.734 26.0765 122.468 26.097 122.201 26.1175C121.935 26.1585 121.689 26.1585 121.402 26.1585C120.746 26.1585 120.233 26.097 119.844 25.974C119.454 25.851 119.147 25.6665 118.921 25.441C118.696 25.195 118.552 24.908 118.47 24.5595C118.388 24.211 118.347 23.7805 118.327 23.3295V16.7695H116.461V14.904V14.945Z" fill="black"/>
<path d="M29.4585 10.7014H18.204L14.7395 0.000370026L11.2545 10.7014L0 10.6809L9.10199 17.3024L5.617 28.0034L14.719 21.3819L23.821 28.0034L20.3565 17.3024L29.4585 10.7014Z" fill="#00B67A"/>
<path d="M21.1362 19.7211L20.3572 17.3021L14.7402 21.3816L21.1362 19.7211Z" fill="#005128"/>
</svg>
