<svg width="16" height="13" viewBox="0 0 16 13" fill="none" xmlns="http://www.w3.org/2000/svg">
<path fill-rule="evenodd" clip-rule="evenodd" d="M15.9412 1.53784C15.341 1.8004 14.7409 1.98795 14.0657 2.06296C14.7409 1.65037 15.266 1.01273 15.4911 0.262559C14.8534 0.637643 14.1408 0.9002 13.4281 1.05023C12.828 0.41259 11.9653 0 11.0275 0C9.22713 0 7.76429 1.46283 7.76429 3.26323C7.76429 3.52579 7.8018 3.78835 7.83931 4.0134C5.10118 3.86337 2.70062 2.58808 1.08775 0.600137C0.78768 1.08774 0.637646 1.65037 0.637646 2.2505C0.637646 3.37576 1.20028 4.38848 2.10049 4.98861C1.57536 4.98861 1.05024 4.83858 0.600137 4.57602V4.61353C0.600137 6.18889 1.7254 7.53918 3.22575 7.83925C2.96318 7.91426 2.66312 7.95178 2.36304 7.95178C2.13799 7.95178 1.95045 7.91426 1.76291 7.87676C2.1755 9.18955 3.37578 10.1273 4.83861 10.1648C3.71336 11.0275 2.32553 11.5526 0.78768 11.5526C0.525121 11.5526 0.262562 11.5526 0 11.5151C1.46284 12.4528 3.15073 12.9779 5.02616 12.9779C11.0651 12.9779 14.3283 7.98928 14.3283 3.67582C14.3283 3.52579 14.3283 3.37576 14.3283 3.26323C14.966 2.77563 15.5286 2.17548 15.9412 1.53784Z" fill="#6C5FBC"/>
</svg>
